<?xml version="1.0" standalone="no"?>
  <!DOCTYPE svg PUBLIC "-//W3C//DTD SVG 1.1//EN" "http://www.w3.org/Graphics/SVG/1.1/DTD/svg11.dtd" >
  <svg>
  <metadata>
  Created by font-carrier
  </metadata>
  <defs>
  <font id="GillSansNova-ExtraCondBold" horiz-adv-x="1249" vert-adv-y="1249" >
    <font-face
      
      font-family="Gill Sans Nova ExtraCond Bold"
      
      font-weight="400"
      
      font-stretch="normal"
      
      units-per-em="1000"
      
      ascent="1135"
      
      descent="-299"
      
    />
      <missing-glyph />

      

      
      <glyph glyph-name="uni21" unicode="&#x21;" d="M123 659Q123 621 119 571.50Q115 522 109 466Q103 410 96 351Q89 292 83 237L53 237L25 475Q17 546 14 585.50Q11 625 11 651Q11 799 67 799Q95 799 109 763.50Q123 728 123 659M126 52Q126 28 109 11Q92-6 68-6Q43-6 26 11Q9 28 9 52Q9 77 26 94Q43 111 68 111Q92 111 109 93.50Q126 76 126 52Z"  horiz-adv-x="135" vert-adv-y="1000"  />

      
      <glyph glyph-name="uni22" unicode="&#x22;" d="M102 802L102 684L82 548L37 548L16 684L16 802L102 802M234 802L234 684L214 548L169 548L148 684L148 802L234 802Z"  horiz-adv-x="250" vert-adv-y="1000"  />

      
      <glyph glyph-name="uni23" unicode="&#x23;" d="M269 777L226 567L337 567L380 777L446 777L404 567L490 567L490 502L391 502L353 316L490 316L490 251L340 251L296 41L229 41L272 251L163 251L120 41L54 41L97 251L10 251L10 316L110 316L148 502L10 502L10 567L163 567L205 777L269 777M215 502L177 316L286 316L324 502L215 502Z"  horiz-adv-x="500" vert-adv-y="1000"  />

      
      <glyph glyph-name="uni24" unicode="&#x24;" d="M124 802L149 802L149 763Q179 763 207 754Q235 745 255 734L255 635Q233 652 207.50 664.50Q182 677 149 677L149 482Q212 389 238 315.50Q264 242 264 170Q264 95 234 49Q204 3 149-6L149-84L124-84L124-6Q89-5 63.50 6.50Q38 18 19 31L19 134Q40 117 54.50 107Q69 97 80.50 91Q92 85 102 83Q112 81 124 80L124 305L88 370Q49 440 33 490Q17 540 17 589Q17 661 44 706Q71 751 124 763L124 802M124 670Q107 661 98.50 641Q90 621 90 607Q90 591 98 570.50Q106 550 124 526L124 670M149 83Q170 94 179 110Q188 126 188 149Q188 164 184 180.50Q180 197 174 212.50Q168 228 161.50 240.50Q155 253 149 259L149 83Z"  horiz-adv-x="281" vert-adv-y="1000"  />

      
      <glyph glyph-name="uni25" unicode="&#x25;" d="M222 605Q222 563 215.50 527.50Q209 492 196.50 465.50Q184 439 164.50 424.50Q145 410 120 410Q94 410 75 425.50Q56 441 43 468Q30 495 23.50 532Q17 569 17 612Q17 654 24 688.50Q31 723 44 748.50Q57 774 76 788Q95 802 119 802Q169 802 195.50 749Q222 696 222 605M337 802L381 802L127-16L81-16L337 802M120 731Q106 713 102 680.50Q98 648 98 611Q98 595 98.50 577Q99 559 101 542Q103 525 107.50 510Q112 495 120 484Q125 490 129 499Q133 508 135.50 522.50Q138 537 139.50 558Q141 579 141 608Q141 635 140 654Q139 673 137 687Q135 701 130.50 711.50Q126 722 120 731M445 179Q445 137 438.50 101.50Q432 66 419.50 39.50Q407 13 387.50-1.50Q368-16 343-16Q317-16 298-0.50Q279 15 266 42Q253 69 246.50 106Q240 143 240 186Q240 228 247 262.50Q254 297 267 322.50Q280 348 299 362Q318 376 342 376Q392 376 418.50 323Q445 270 445 179M343 305Q329 287 325 254.50Q321 222 321 185Q321 169 321.50 151Q322 133 324 116Q326 99 330.50 84Q335 69 343 58Q348 64 352 73Q356 82 358.50 96.50Q361 111 362.50 132Q364 153 364 182Q364 209 363 228Q362 247 360 261Q358 275 353.50 285.50Q349 296 343 305Z"  horiz-adv-x="458" vert-adv-y="1000"  />

      
      <glyph glyph-name="uni26" unicode="&#x26;" d="M253 654Q253 606 236.50 548.50Q220 491 178 413L218 308Q227 340 229.50 369Q232 398 234 430L327 430Q326 400 321.50 365Q317 330 309.50 295.50Q302 261 292 228Q282 195 271 168L333 0L218 0L201 47Q179 19 157.50 6.50Q136-6 114-6Q69-6 40 38Q11 82 11 157Q11 217 28 272.50Q45 328 74 385Q21 524 21 624Q21 664 30.50 696.50Q40 729 56.50 752.50Q73 776 95 789Q117 802 143 802Q193 802 223 760Q253 718 253 654M140 701Q123 681 118.50 662Q114 643 114 623Q114 611 117.50 586Q121 561 136 523Q146 538 153 567.50Q160 597 160 626Q160 646 156.50 663Q153 680 140 701M136 119Q148 119 155 129Q162 139 165 146L120 264Q114 249 109 231.50Q104 214 104 186Q104 153 113 136Q122 119 136 119Z"  horiz-adv-x="344" vert-adv-y="1000"  />

      
      <glyph glyph-name="uni27" unicode="&#x27;" d="M168 802L168 684L148 548L103 548L82 684L82 802L168 802Z"  horiz-adv-x="250" vert-adv-y="1000"  />

      
      <glyph glyph-name="uni28" unicode="&#x28;" d="M184 755Q171 736 162.50 717Q154 698 148 676Q137 637 131.50 567Q126 497 126 397Q126 359 127 313.50Q128 268 130 214Q132 155 134.50 112Q137 69 142 37Q147 5 157-20.50Q167-46 184-70L184-117Q146-88 117.50-40.50Q89 7 70.50 67Q52 127 42.50 197.50Q33 268 33 343Q33 408 40.50 475Q48 542 65.50 603Q83 664 112 715.50Q141 767 184 802L184 755Z"  horiz-adv-x="198" vert-adv-y="1000"  />

      
      <glyph glyph-name="uni29" unicode="&#x29;" d="M14-70Q27-51 35.50-32Q44-13 50 9Q61 48 66.50 118Q72 188 72 288Q72 326 71 371.50Q70 417 68 471Q66 530 63.50 573Q61 616 56 648Q51 680 41 705.50Q31 731 14 755L14 802Q52 773 80.50 725.50Q109 678 127.50 618Q146 558 155.50 487.50Q165 417 165 342Q165 277 157.50 210Q150 143 132.50 82Q115 21 86-31Q57-83 14-117L14-70Z"  horiz-adv-x="198" vert-adv-y="1000"  />

      
      <glyph glyph-name="uni2a" unicode="&#x2a;" d="M270 782Q270 776 267 766L232 625Q244 620 248 613L360 719Q370 729 378 729Q385 729 392.50 719Q400 709 406.50 697Q413 685 417 674Q421 663 421 661Q421 647 400 641L256 602Q257 599 257 593Q257 587 256 584L400 540Q409 537 415 531Q421 525 421 519Q421 515 416 504.50Q411 494 404 483Q397 472 389 463.50Q381 455 375 455Q365 455 350 470L248 571Q242 563 232 562L267 416Q268 411 268.50 408.50Q269 406 269 403Q269 392 261 387.50Q253 383 229 383Q200 383 190.50 388Q181 393 181 402Q181 405 183 415L218 562Q208 563 202 571L92 467Q83 458 74 458Q67 458 59 467.50Q51 477 44.50 489Q38 501 34 512Q30 523 30 526Q30 539 48 544L194 584Q193 586 193 592Q193 599 194 602L47 645Q28 651 28 664Q28 668 32.50 679Q37 690 44 701.50Q51 713 59 722Q67 731 73 731Q79 731 88.50 724.50Q98 718 109 707L202 612Q207 620 218 625L184 766Q181 776 181 786Q181 797 192 799.50Q203 802 230 802Q254 802 262 797.50Q270 793 270 782Z"  horiz-adv-x="448" vert-adv-y="1000"  />

      
      <glyph glyph-name="uni2b" unicode="&#x2b;" d="M48 397L198 397L198 577L291 577L291 397L441 397L441 304L291 304L291 124L198 124L198 304L48 304L48 397Z"  horiz-adv-x="489" vert-adv-y="1000"  />

      
      <glyph glyph-name="uni2c" unicode="&#x2c;" d="M132 43Q132-5 100.50-48Q69-91 15-117L15-74Q37-59 47-43Q57-27 62-6Q42 0 28.50 15Q15 30 15 53Q15 79 33 95Q51 111 74 111Q97 111 114.50 93.50Q132 76 132 43Z"  horiz-adv-x="135" vert-adv-y="1000"  />

      
      <glyph glyph-name="uni2d" unicode="&#x2d;" d="M207 353L207 260L12 260L12 353L207 353Z"  horiz-adv-x="219" vert-adv-y="1000"  />

      
      <glyph glyph-name="uni2e" unicode="&#x2e;" d="M126 52Q126 28 109 11Q92-6 68-6Q43-6 26 11Q9 28 9 52Q9 77 26 94Q43 111 68 111Q92 111 109 93.50Q126 76 126 52Z"  horiz-adv-x="135" vert-adv-y="1000"  />

      
      <glyph glyph-name="uni2f" unicode="&#x2f;" d="M283 796L74-6L3-6L213 796L283 796Z"  horiz-adv-x="250" vert-adv-y="1000"  />

      
      <glyph glyph-name="uni30" unicode="&#x30;" d="M305 395Q305 314 296.50 241.50Q288 169 271 114Q254 59 227.50 26.50Q201-6 164-6Q128-6 100.50 24.50Q73 55 55 108.50Q37 162 27.50 233.50Q18 305 18 387Q18 585 55.50 693.50Q93 802 162 802Q197 802 224 773Q251 744 269 691Q287 638 296 563Q305 488 305 395M162 680Q150 663 143.50 633.50Q137 604 134 571.50Q131 539 130.50 507.50Q130 476 130 455L130 382Q130 283 136 213.50Q142 144 162 114Q185 151 189 221.50Q193 292 193 382L193 457Q193 484 192 517Q191 550 187.50 581.50Q184 613 178 639.50Q172 666 162 680Z"  horiz-adv-x="323" vert-adv-y="1000"  />

      
      <glyph glyph-name="uni31" unicode="&#x31;" d="M152 802L152 0L45 0L45 623L9 623L9 637L152 802Z"  horiz-adv-x="188" vert-adv-y="1000"  />

      
      <glyph glyph-name="uni32" unicode="&#x32;" d="M229 612Q229 570 225 521Q221 472 211.50 411.50Q202 351 187 275.50Q172 200 151 105L236 105L236 0L16 0Q39 86 58 176Q77 266 90 347Q103 428 110 493.50Q117 559 117 595Q117 682 67 682Q52 682 39 674.50Q26 667 16 657L16 760Q37 779 57 790.50Q77 802 105 802Q163 802 196 755Q229 708 229 612Z"  horiz-adv-x="240" vert-adv-y="1000"  />

      
      <glyph glyph-name="uni33" unicode="&#x33;" d="M213 592Q213 538 197 489Q181 440 139 409Q184 374 201.50 331Q219 288 219 228Q219 124 166 61Q113-2 15-6L15 105Q59 108 83 143Q107 178 107 228Q107 285 82.50 319.50Q58 354 15 355L15 443L21 443Q42 443 57 454Q72 465 82.50 484Q93 503 98 528.50Q103 554 103 583Q103 695 43 695Q37 695 31 694Q25 693 15 689L15 790Q29 796 43.50 799Q58 802 68 802Q96 802 122 788Q148 774 168.50 747Q189 720 201 681Q213 642 213 592Z"  horiz-adv-x="229" vert-adv-y="1000"  />

      
      <glyph glyph-name="uni34" unicode="&#x34;" d="M282 802L282 341L337 341L337 240L282 240L282 0L183 0L183 240L13 240L13 296L215 802L282 802M115 341L183 341L183 508L115 341Z"  horiz-adv-x="344" vert-adv-y="1000"  />

      
      <glyph glyph-name="uni35" unicode="&#x35;" d="M225 796L225 691L130 691L130 442Q179 407 198 359Q217 311 217 252Q217 199 202.50 152.50Q188 106 162 71Q136 36 99 15.50Q62-5 17-6L17 106Q105 129 105 253Q105 275 101.50 296.50Q98 318 89 336.50Q80 355 64 369Q48 383 23 390L23 796L225 796Z"  horiz-adv-x="229" vert-adv-y="1000"  />

      
      <glyph glyph-name="uni36" unicode="&#x36;" d="M305 715Q265 664 236.50 611.50Q208 559 181 490Q244 436 271.50 375.50Q299 315 299 234Q299 185 288.50 141.50Q278 98 260 65Q242 32 216.50 13Q191-6 161-6Q127-6 101 17Q75 40 57.50 76Q40 112 31 157.50Q22 203 22 248Q22 283 28 327Q34 371 45 416Q59 472 80.50 527.50Q102 583 128 633.50Q154 684 183.50 727Q213 770 243 802L305 715M129 246Q129 211 134.50 177Q140 143 163 117Q172 126 182 151Q192 176 192 231Q192 282 182 314.50Q172 347 147 374Q136 344 132.50 310Q129 276 129 246Z"  horiz-adv-x="313" vert-adv-y="1000"  />

      
      <glyph glyph-name="uni37" unicode="&#x37;" d="M213 796L121-6L17 7L94 691L12 691L12 796L213 796Z"  horiz-adv-x="219" vert-adv-y="1000"  />

      
      <glyph glyph-name="uni38" unicode="&#x38;" d="M144 802Q173 802 197 785Q221 768 238 738.50Q255 709 264.50 669Q274 629 274 584Q274 527 258.50 481Q243 435 213 406Q250 364 264.50 320Q279 276 279 220Q279 174 269 133Q259 92 241 61Q223 30 199 12Q175-6 147-6Q118-6 93.50 12Q69 30 51 60.50Q33 91 23 132Q13 173 13 219Q13 339 78 406Q44 440 30.50 487Q17 534 17 585Q17 630 26.50 669.50Q36 709 53.50 738.50Q71 768 94 785Q117 802 144 802M146 688Q129 665 124.50 636Q120 607 120 580Q120 543 127 513.50Q134 484 146 470Q163 492 167 519Q171 546 171 574Q171 616 164 645Q157 674 146 688M146 342Q132 324 126 291Q120 258 120 229Q120 199 125 169Q130 139 146 120Q160 135 166 160Q172 185 172 230Q172 262 167.50 290Q163 318 146 342Z"  horiz-adv-x="292" vert-adv-y="1000"  />

      
      <glyph glyph-name="uni39" unicode="&#x39;" d="M160 802Q193 802 218.50 780.50Q244 759 262 723Q280 687 289.50 641Q299 595 299 547Q299 481 281.50 404Q264 327 234 252Q204 177 164 109.50Q124 42 78-6L16 81Q40 113 56 136.50Q72 160 85.50 184Q99 208 111 236.50Q123 265 140 306Q79 354 50.50 419Q22 484 22 562Q22 611 32.50 655Q43 699 61 731.50Q79 764 104.50 783Q130 802 160 802M158 679Q143 667 136 633.50Q129 600 129 563Q129 518 138.50 483Q148 448 174 422Q185 452 188.50 485.50Q192 519 192 549Q192 585 186.50 618.50Q181 652 158 679Z"  horiz-adv-x="313" vert-adv-y="1000"  />

      
      <glyph glyph-name="uni3a" unicode="&#x3a;" d="M68 435Q92 435 109 417.50Q126 400 126 376Q126 352 109 335Q92 318 68 318Q43 318 26 335Q9 352 9 376Q9 401 26 418Q43 435 68 435M68 111Q92 111 109 93.50Q126 76 126 52Q126 28 109 11Q92-6 68-6Q43-6 26 11Q9 28 9 52Q9 77 26 94Q43 111 68 111Z"  horiz-adv-x="135" vert-adv-y="1000"  />

      
      <glyph glyph-name="uni3b" unicode="&#x3b;" d="M68 435Q92 435 109 417.50Q126 400 126 376Q126 352 109 335Q92 318 68 318Q43 318 26 335Q9 352 9 376Q9 401 26 418Q43 435 68 435M127 43Q127-5 95.50-48Q64-91 10-117L10-74Q32-59 42-43Q52-27 57-6Q37 0 23.50 15Q10 30 10 53Q10 79 28 95Q46 111 69 111Q92 111 109.50 93.50Q127 76 127 43Z"  horiz-adv-x="135" vert-adv-y="1000"  />

      
      <glyph glyph-name="uni3c" unicode="&#x3c;" d="M49 394L441 583L441 482L162 351L441 220L441 119L49 308L49 394Z"  horiz-adv-x="489" vert-adv-y="1000"  />

      
      <glyph glyph-name="uni3d" unicode="&#x3d;" d="M49 509L441 509L441 416L49 416L49 509M49 286L441 286L441 194L49 194L49 286Z"  horiz-adv-x="489" vert-adv-y="1000"  />

      
      <glyph glyph-name="uni3e" unicode="&#x3e;" d="M49 220L328 351L49 482L49 583L441 394L441 308L49 119L49 220Z"  horiz-adv-x="489" vert-adv-y="1000"  />

      
      <glyph glyph-name="uni3f" unicode="&#x3f;" d="M71 802Q111 802 135 771Q159 740 159 683Q159 635 146 579Q133 523 118 462Q104 404 94.50 348.50Q85 293 85 241L85 236L43 236Q42 270 41.50 301.50Q41 333 41 353Q41 399 44.50 445.50Q48 492 52.50 531.50Q57 571 61 600.50Q65 630 65 642Q65 688 38 688Q24 688 11 675L11 782Q27 792 40 797Q53 802 71 802M82 111Q106 111 123 93.50Q140 76 140 52Q140 28 123 11Q106-6 82-6Q57-6 40 11Q23 28 23 52Q23 77 40 94Q57 111 82 111Z"  horiz-adv-x="167" vert-adv-y="1000"  />

      
      <glyph glyph-name="uni40" unicode="&#x40;" d="M401 802Q464 802 521.50 780Q579 758 622.50 714Q666 670 691.50 604.50Q717 539 717 451Q717 370 698 311.50Q679 253 649.50 215.50Q620 178 584 160.50Q548 143 513 143Q479 143 456 159Q433 175 425 204Q399 169 370.50 156Q342 143 323 143Q255 143 226 191Q197 239 197 322Q197 382 210 438.50Q223 495 250 539.50Q277 584 317.50 610.50Q358 637 413 637Q431 637 467 628.50Q503 620 542 603L496 294Q493 270 493 257Q493 232 500.50 222Q508 212 522 212Q544 212 566 227.50Q588 243 605.50 273Q623 303 634 347.50Q645 392 645 451Q645 521 627.50 574.50Q610 628 577.50 664.50Q545 701 500 719.50Q455 738 401 738Q334 738 279.50 709Q225 680 187 629.50Q149 579 128 510.50Q107 442 107 363Q107 206 178.50 122Q250 38 381 38Q441 38 494 55Q547 72 577 97L612 42Q569 11 508.50-7.50Q448-26 382-26Q295-26 229.50 2Q164 30 121 81Q78 132 56.50 204Q35 276 35 363Q35 448 59.50 527Q84 606 130.50 667Q177 728 245.50 765Q314 802 401 802M283 322Q283 291 287 271Q291 251 297.50 239Q304 227 313 222.50Q322 218 333 218Q358 218 380 244Q402 270 414 304L452 551Q435 557 424.50 559.50Q414 562 400 562Q376 562 354.50 544Q333 526 317.50 493.50Q302 461 292.50 417Q283 373 283 322Z"  horiz-adv-x="752" vert-adv-y="1000"  />

      
      <glyph glyph-name="uni41" unicode="&#x41;" d="M218 802L302 0L194 0L188 142L128 142L118 0L11 0L101 802L218 802M153 670Q152 652 151.50 626.50Q151 601 150.50 573Q150 545 149 516.50Q148 488 147 465L134 247L181 247L171 463Q169 515 167 566.50Q165 618 162 670L153 670Z"  horiz-adv-x="313" vert-adv-y="1000"  />

      
      <glyph glyph-name="uni42" unicode="&#x42;" d="M309 224Q309 167 293 125Q277 83 250 55.50Q223 28 187 14Q151 0 112 0L27 0L27 796L98 796Q145 796 181.50 779.50Q218 763 243.50 734Q269 705 282 665Q295 625 295 577Q295 516 275 473.50Q255 431 224 405Q272 371 290.50 328.50Q309 286 309 224M134 459Q167 474 177.50 505.50Q188 537 188 569Q188 612 174 644Q160 676 134 682L134 459M134 114Q167 125 182 156.50Q197 188 197 223Q197 265 180 297.50Q163 330 134 343L134 114Z"  horiz-adv-x="323" vert-adv-y="1000"  />

      
      <glyph glyph-name="uni43" unicode="&#x43;" d="M18 403Q18 499 32.50 573.50Q47 648 72 698.50Q97 749 129 775.50Q161 802 196 802Q209 802 222 798.50Q235 795 249 787L249 688Q241 692 231.50 694.50Q222 697 217 697Q175 697 152.50 626Q130 555 130 416Q130 364 132.50 309.50Q135 255 144 210Q153 165 169.50 136Q186 107 214 107Q225 107 232 108.50Q239 110 249 117L249 11Q238 1 225.50-2.50Q213-6 198-6Q147-6 112.50 30.50Q78 67 57 125.50Q36 184 27 257Q18 330 18 403Z"  horiz-adv-x="260" vert-adv-y="1000"  />

      
      <glyph glyph-name="uni44" unicode="&#x44;" d="M27 796L64 796Q113 796 150.50 779Q188 762 215 733Q242 704 259.50 665.50Q277 627 287.50 583Q298 539 302 492.50Q306 446 306 402Q306 369 303.50 326.50Q301 284 292.50 239.50Q284 195 269 152Q254 109 229.50 75Q205 41 169 20.50Q133 0 84 0L27 0L27 796M134 130Q171 157 182.50 223.50Q194 290 194 399Q194 438 192 479.50Q190 521 183.50 557.50Q177 594 165 622Q153 650 134 663L134 130Z"  horiz-adv-x="323" vert-adv-y="1000"  />

      
      <glyph glyph-name="uni45" unicode="&#x45;" d="M210 796L210 691L134 691L134 440L210 440L210 335L134 335L134 105L210 105L210 0L27 0L27 796L210 796Z"  horiz-adv-x="219" vert-adv-y="1000"  />

      
      <glyph glyph-name="uni46" unicode="&#x46;" d="M210 796L210 691L134 691L134 441L210 441L210 336L134 336L134 0L27 0L27 796L210 796Z"  horiz-adv-x="219" vert-adv-y="1000"  />

      
      <glyph glyph-name="uni47" unicode="&#x47;" d="M305 650Q268 697 231 697Q204 697 184.50 674.50Q165 652 153 613Q141 574 135.50 521Q130 468 130 407Q130 368 132 322.50Q134 277 141.50 234.50Q149 192 162 157.50Q175 123 198 105L198 293L157 293L157 398L305 398L305 0Q295-3 276.50-4.50Q258-6 223-6Q186-6 149.50 13.50Q113 33 83.50 79Q54 125 36 201.50Q18 278 18 392Q18 483 32 558.50Q46 634 71.50 688Q97 742 133.50 772Q170 802 215 802Q241 802 260.50 794.50Q280 787 305 773L305 650Z"  horiz-adv-x="329" vert-adv-y="1000"  />

      
      <glyph glyph-name="uni48" unicode="&#x48;" d="M134 796L134 440L189 440L189 796L296 796L296 0L189 0L189 335L134 335L134 0L27 0L27 796L134 796Z"  horiz-adv-x="323" vert-adv-y="1000"  />

      
      <glyph glyph-name="uni49" unicode="&#x49;" d="M134 796L134 0L27 0L27 796L134 796Z"  horiz-adv-x="161" vert-adv-y="1000"  />

      
      <glyph glyph-name="uni4a" unicode="&#x4a;" d="M137 796L137 53Q137-25 103.50-71Q70-117-8-117L-15-117L-15 0Q11 0 20.50 13.50Q30 27 30 47L30 796L137 796Z"  horiz-adv-x="164" vert-adv-y="1000"  />

      
      <glyph glyph-name="uni4b" unicode="&#x4b;" d="M134 796L134 445Q170 478 181.50 548Q193 618 193 718L193 796L300 796L300 669Q300 639 297 607.50Q294 576 286.50 543.50Q279 511 266 480Q253 449 232 421Q265 387 282.50 317.50Q300 248 300 130L300 0L193 0L193 106Q193 157 190.50 203.50Q188 250 181 286Q174 322 163 345Q152 368 134 374L134 0L27 0L27 796L134 796Z"  horiz-adv-x="323" vert-adv-y="1000"  />

      
      <glyph glyph-name="uni4c" unicode="&#x4c;" d="M134 796L134 105L197 105L197 0L27 0L27 796L134 796Z"  horiz-adv-x="208" vert-adv-y="1000"  />

      
      <glyph glyph-name="uni4d" unicode="&#x4d;" d="M181 796L215 356L255 796L342 796L420 0L314 0L288 387L231 0L195 0L142 387L113 0L10 0L93 796L181 796Z"  horiz-adv-x="430" vert-adv-y="1000"  />

      
      <glyph glyph-name="uni4e" unicode="&#x4e;" d="M125 796L192 381L198 381L186 796L292 796L292 0L198 0L125 441L121 441L133 0L27 0L27 796L125 796Z"  horiz-adv-x="319" vert-adv-y="1000"  />

      
      <glyph glyph-name="uni4f" unicode="&#x4f;" d="M162 802Q197 802 223.50 773.50Q250 745 268 691.50Q286 638 295.50 563Q305 488 305 395Q305 314 296.50 241Q288 168 271 113Q254 58 227.50 26Q201-6 164-6Q128-6 100.50 25.50Q73 57 54.50 110.50Q36 164 27 235.50Q18 307 18 387Q18 486 27.50 563Q37 640 55.50 693Q74 746 100.50 774Q127 802 162 802M162 680Q138 642 134 572.50Q130 503 130 403Q130 340 131.50 293Q133 246 136.50 211.50Q140 177 146 153.50Q152 130 162 114Q173 135 179.50 158.50Q186 182 189 215Q192 248 192.50 293.50Q193 339 193 403Q193 464 191.50 509Q190 554 186.50 587Q183 620 177 642.50Q171 665 162 680Z"  horiz-adv-x="323" vert-adv-y="1000"  />

      
      <glyph glyph-name="uni50" unicode="&#x50;" d="M27 796L80 796Q137 796 178.50 776.50Q220 757 247 724.50Q274 692 287 650.50Q300 609 300 564Q300 522 289 484Q278 446 257 415Q236 384 205 362Q174 340 134 330L134 0L27 0L27 796M134 445Q159 460 173.50 489Q188 518 188 562Q188 605 173.50 634.50Q159 664 134 678L134 445Z"  horiz-adv-x="313" vert-adv-y="1000"  />

      
      <glyph glyph-name="uni51" unicode="&#x51;" d="M162 802Q197 802 224 772.50Q251 743 269 690Q287 637 296 563Q305 489 305 399Q305 339 301 283.50Q297 228 288 180Q279 132 263.50 93Q248 54 226 27Q240 13 253 6.50Q266 0 284 0L295 0L264-98L257-98Q206-98 143-35Q114-7 91 29.50Q68 66 52 116Q36 166 27 233Q18 300 18 391Q18 484 27.50 560Q37 636 55 689.50Q73 743 100 772.50Q127 802 162 802M163 681Q143 652 139 599.50Q135 547 133 460L130 342Q130 322 130.50 289Q131 256 134.50 221.50Q138 187 145 158Q152 129 163 117Q172 133 178 160.50Q184 188 187 219Q190 250 191 281.50Q192 313 192 338L192 484Q192 574 183 619Q174 664 163 681Z"  horiz-adv-x="323" vert-adv-y="1000"  />

      
      <glyph glyph-name="uni52" unicode="&#x52;" d="M27 796L99 796Q142 796 178.50 780.50Q215 765 241.50 737Q268 709 283 669.50Q298 630 298 582Q298 528 281.50 484Q265 440 225 408Q246 387 262.50 357Q279 327 292 279.50Q305 232 313.50 164Q322 96 325 0L216 0Q213 142 191.50 232Q170 322 134 349L134 0L27 0L27 796M134 452Q161 463 175 496.50Q189 530 189 568Q189 611 175 640.50Q161 670 134 682L134 452Z"  horiz-adv-x="333" vert-adv-y="1000"  />

      
      <glyph glyph-name="uni53" unicode="&#x53;" d="M225 686Q217 689 207.50 693Q198 697 185 697Q153 697 135.50 671.50Q118 646 118 607Q118 548 157 448Q177 397 190.50 358Q204 319 212 286.50Q220 254 223.50 226.50Q227 199 227 172Q227 122 213 88Q199 54 178 33Q157 12 131 3Q105-6 81-6Q62-6 43-2.50Q24 1 13 6L13 116Q21 112 32.50 108.50Q44 105 59 105Q89 105 105.50 124.50Q122 144 122 179Q122 222 105 272.50Q88 323 67.50 377Q47 431 30 488.50Q13 546 13 605Q13 645 20.50 680.50Q28 716 44.50 743Q61 770 88.50 786Q116 802 156 802Q177 802 193.50 798.50Q210 795 225 790L225 686Z"  horiz-adv-x="240" vert-adv-y="1000"  />

      
      <glyph glyph-name="uni54" unicode="&#x54;" d="M270 796L270 691L194 691L194 0L87 0L87 691L11 691L11 796L270 796Z"  horiz-adv-x="281" vert-adv-y="1000"  />

      
      <glyph glyph-name="uni55" unicode="&#x55;" d="M132 796L132 204Q132 193 134 180.50Q136 168 139.50 156Q143 144 148 134Q153 124 159 118Q174 140 178.50 158Q183 176 183 204L183 796L290 796L290 215Q290 169 280 128.50Q270 88 252.50 58Q235 28 211 11Q187-6 159-6Q129-6 104 11.50Q79 29 61.50 59Q44 89 34.50 129Q25 169 25 215L25 796L132 796Z"  horiz-adv-x="315" vert-adv-y="1000"  />

      
      <glyph glyph-name="uni56" unicode="&#x56;" d="M116 796L154 337L187 796L296 796L200-6L110-6L6 796L116 796Z"  horiz-adv-x="302" vert-adv-y="1000"  />

      
      <glyph glyph-name="uni57" unicode="&#x57;" d="M120 796L154 334L198 796L293 796L337 328L371 796L477 796L381-6L293-6L245 436L198-6L110-6L13 796L120 796Z"  horiz-adv-x="490" vert-adv-y="1000"  />

      
      <glyph glyph-name="uni58" unicode="&#x58;" d="M121 796L156 605L192 796L301 796L211 395L301 0L192 0L156 188L121 0L12 0L103 395L12 796L121 796Z"  horiz-adv-x="313" vert-adv-y="1000"  />

      
      <glyph glyph-name="uni59" unicode="&#x59;" d="M120 796L157 593L194 796L302 796L209 380L209 0L102 0L102 380L11 796L120 796Z"  horiz-adv-x="313" vert-adv-y="1000"  />

      
      <glyph glyph-name="uni5a" unicode="&#x5a;" d="M206 796L131 105L206 105L206 0L13 0L89 691L13 691L13 796L206 796Z"  horiz-adv-x="219" vert-adv-y="1000"  />

      
      <glyph glyph-name="uni5b" unicode="&#x5b;" d="M167 802L167 741L98 741L98-56L167-56L167-117L10-117L10 802L167 802Z"  horiz-adv-x="188" vert-adv-y="1000"  />

      
      <glyph glyph-name="uni5c" unicode="&#x5c;" d="M42 796L250-6L179-6L-28 796L42 796Z"  horiz-adv-x="250" vert-adv-y="1000"  />

      
      <glyph glyph-name="uni5d" unicode="&#x5d;" d="M178 802L178-117L21-117L21-56L90-56L90 741L21 741L21 802L178 802Z"  horiz-adv-x="188" vert-adv-y="1000"  />

      
      <glyph glyph-name="uni5e" unicode="&#x5e;" d="M283 668L429 309L338 309L243 556L148 309L56 309L203 668L283 668Z"  horiz-adv-x="486" vert-adv-y="1000"  />

      
      <glyph glyph-name="uni5f" unicode="&#x5f;" d="M506-75L506-125L-6-125L-6-75L506-75Z"  horiz-adv-x="500" vert-adv-y="1000"  />

      
      <glyph glyph-name="uni60" unicode="&#x60;" d="M179 802L215 654L160 654L84 802L179 802Z"  horiz-adv-x="333" vert-adv-y="1000"  />

      
      <glyph glyph-name="uni61" unicode="&#x61;" d="M103-6Q78-6 61 13.50Q44 33 34 68.50Q24 104 19.50 152Q15 200 15 257L15 336Q15 477 64.50 548Q114 619 200 619L246 619L246 155Q246 127 250.50 105.50Q255 84 270 72L216-6Q201-1 190 9Q179 19 166 46Q153 24 136.50 9Q120-6 103-6M108 227Q108 210 109 185.50Q110 161 113 138Q116 115 121.50 99Q127 83 137 83Q147 83 153 89L153 512Q130 500 119 459Q108 418 108 354L108 227Z"  horiz-adv-x="281" vert-adv-y="1000"  />

      
      <glyph glyph-name="uni62" unicode="&#x62;" d="M118 796L118 601Q134 619 163 619Q205 619 230 567Q255 515 255 410L255 282Q255 225 246 174Q237 123 215 84Q193 45 156 22.50Q119 0 64 0L25 0L25 796L118 796M118 107Q127 110 135 119.50Q143 129 149 148.50Q155 168 158.50 199.50Q162 231 162 278L162 424Q162 475 155 500.50Q148 526 131 526Q123 526 118 522L118 107Z"  horiz-adv-x="271" vert-adv-y="1000"  />

      
      <glyph glyph-name="uni63" unicode="&#x63;" d="M188 518Q177 526 164 526Q134 526 121 485.50Q108 445 108 366L108 269Q108 229 109.50 195.50Q111 162 116.50 138Q122 114 131.50 100.50Q141 87 156 87Q173 87 188 99L188 10Q183 6 167.50 0Q152-6 139-6Q79-6 47 63Q15 132 15 265L15 363Q15 484 49 551.50Q83 619 147 619Q158 619 166.50 618Q175 617 188 613L188 518Z"  horiz-adv-x="198" vert-adv-y="1000"  />

      
      <glyph glyph-name="uni64" unicode="&#x64;" d="M246 796L246 148Q246 119 250.50 104Q255 89 268 73L214-6Q178 5 164 48Q146 19 133 6.50Q120-6 103-6Q61-6 38 50.50Q15 107 15 221L15 339Q15 475 51.50 546Q88 617 153 619L153 796L246 796M108 213Q108 159 114.50 122Q121 85 138 85Q148 85 153 93L153 507Q132 503 120 468.50Q108 434 108 371L108 213Z"  horiz-adv-x="281" vert-adv-y="1000"  />

      
      <glyph glyph-name="uni65" unicode="&#x65;" d="M245 448Q245 367 208.50 314Q172 261 108 243Q109 200 115.50 170.50Q122 141 131.50 122.50Q141 104 153.50 95.50Q166 87 180 87Q196 87 204 89Q212 91 229 99L229 3Q217-2 205-4Q193-6 166-6Q99-6 57 61Q15 128 15 264L15 355Q15 422 25 471.50Q35 521 52 554Q69 587 92.50 603Q116 619 142 619Q166 619 185 605.50Q204 592 217.50 568.50Q231 545 238 514Q245 483 245 448M132 526Q118 511 113 482.50Q108 454 108 429L108 336Q122 342 130.50 354Q139 366 144 381Q149 396 150.50 413Q152 430 152 447Q152 479 147 496Q142 513 132 526Z"  horiz-adv-x="260" vert-adv-y="1000"  />

      
      <glyph glyph-name="uni66" unicode="&#x66;" d="M179 714Q155 709 146 694.50Q137 680 137 652L137 613L179 613L179 535L137 535L137 26Q137-42 106-78.50Q75-115 12-117L5-117L5-16L8-16Q31-16 37.50 5.50Q44 27 44 58L44 535L5 535L5 613L44 613L44 644Q44 720 74 761Q104 802 167 802L179 802L179 714Z"  horiz-adv-x="183" vert-adv-y="1000"  />

      
      <glyph glyph-name="uni67" unicode="&#x67;" d="M246 15Q246-42 213.50-79.50Q181-117 121-117Q93-117 70.50-108Q48-99 27-87L57-7Q69-15 81-20.50Q93-26 110-26Q130-26 141.50-15Q153-4 153 15L153 41Q141 24 126.50 17Q112 10 104 10Q61 10 38 78.50Q15 147 15 287Q15 385 28.50 445Q42 505 63 540Q85 576 119 597.50Q153 619 205 619L246 619L246 15M110 214Q110 196 111 177Q112 158 115 142Q118 126 124 116Q130 106 140 106Q149 106 153 110L153 509Q128 493 119 460.50Q110 428 110 377L110 214Z"  horiz-adv-x="271" vert-adv-y="1000"  />

      
      <glyph glyph-name="uni68" unicode="&#x68;" d="M118 796L118 583Q128 598 144 608.50Q160 619 181 619Q217 619 236.50 589Q256 559 256 504L256 0L163 0L163 495Q163 526 142 526Q131 526 118 508L118 0L25 0L25 796L118 796Z"  horiz-adv-x="281" vert-adv-y="1000"  />

      
      <glyph glyph-name="uni69" unicode="&#x69;" d="M71 802Q94 802 110 786.50Q126 771 126 748Q126 725 110 709Q94 693 71 693Q49 693 33 708.50Q17 724 17 747Q17 772 34.50 787Q52 802 71 802M118 613L118 0L25 0L25 613L118 613Z"  horiz-adv-x="143" vert-adv-y="1000"  />

      
      <glyph glyph-name="uni6a" unicode="&#x6a;" d="M82 802Q104 802 119.50 786.50Q135 771 135 748Q135 725 119 709.50Q103 694 81 694Q58 694 42.50 709.50Q27 725 27 748Q27 770 44 786Q61 802 82 802M129 613L129 10Q129-12 122-34.50Q115-57 99.50-75Q84-93 59.50-104.50Q35-116 0-117L0-21Q17-20 26.50-4.50Q36 11 36 33L36 613L129 613Z"  horiz-adv-x="152" vert-adv-y="1000"  />

      
      <glyph glyph-name="uni6b" unicode="&#x6b;" d="M118 796L118 381Q135 398 143 425Q151 452 151 481L151 613L244 613L244 497Q244 442 232 399.50Q220 357 198 343Q223 329 239 279.50Q255 230 255 133L255 0L162 0L162 132Q162 160 160 187.50Q158 215 152.50 237.50Q147 260 138.50 275Q130 290 118 294L118 0L25 0L25 796L118 796Z"  horiz-adv-x="271" vert-adv-y="1000"  />

      
      <glyph glyph-name="uni6c" unicode="&#x6c;" d="M118 796L118 124Q118 99 123.50 85.50Q129 72 147 62L76-6Q49 2 37 23.50Q25 45 25 75L25 796L118 796Z"  horiz-adv-x="156" vert-adv-y="1000"  />

      
      <glyph glyph-name="uni6d" unicode="&#x6d;" d="M65 619Q99 607 112 574Q127 596 142.50 607.50Q158 619 181 619Q224 619 247 574Q266 596 280 607.50Q294 619 317 619Q354 619 372.50 588Q391 557 391 506L391 0L298 0L298 493Q298 507 294 516.50Q290 526 279 526Q271 526 265.50 520.50Q260 515 255 506L255 0L162 0L162 494Q162 506 158 516Q154 526 143 526Q134 526 128 518.50Q122 511 119 506L119 0L26 0L26 509Q26 524 23 534.50Q20 545 10 554L65 619Z"  horiz-adv-x="417" vert-adv-y="1000"  />

      
      <glyph glyph-name="uni6e" unicode="&#x6e;" d="M67 619Q84 614 94.50 603Q105 592 114 576Q129 595 142.50 607Q156 619 181 619Q215 619 235.50 591.50Q256 564 256 513L256 0L163 0L163 500Q163 513 156 519.50Q149 526 141 526Q133 526 128 520.50Q123 515 120 510L120 0L27 0L27 500Q27 517 23.50 529.50Q20 542 8 552L67 619Z"  horiz-adv-x="281" vert-adv-y="1000"  />

      
      <glyph glyph-name="uni6f" unicode="&#x6f;" d="M131 619Q187 619 216.50 536Q246 453 246 306Q246 152 216 73Q186-6 131-6Q74-6 44.50 75.50Q15 157 15 306Q15 379 22.50 437Q30 495 44.50 535.50Q59 576 80.50 597.50Q102 619 131 619M131 99Q141 106 147 155Q153 204 153 279L153 323Q153 411 147 459Q141 507 131 512Q126 509 121.50 494.50Q117 480 114 458.50Q111 437 109.50 410Q108 383 108 356L108 281Q108 247 109.50 216.50Q111 186 113.50 162Q116 138 120.50 121.50Q125 105 131 99Z"  horiz-adv-x="261" vert-adv-y="1000"  />

      
      <glyph glyph-name="uni70" unicode="&#x70;" d="M118 98Q132 100 140.50 116Q149 132 154 157.50Q159 183 161 215Q163 247 163 280L163 402Q163 528 131 528Q124 528 118 522L118 98M168 619Q194 619 211 595Q228 571 238 534Q248 497 252 453Q256 409 256 369L256 264Q256 137 221 67Q186-3 118-6L118-117L25-117L25 504Q25 521 20 531.50Q15 542 4 552L67 619Q90 609 100.50 600Q111 591 118 576Q128 593 141 606Q154 619 168 619Z"  horiz-adv-x="271" vert-adv-y="1000"  />

      
      <glyph glyph-name="uni71" unicode="&#x71;" d="M15 249Q15 322 20 389Q25 456 46 507Q67 558 108.50 588.50Q150 619 224 619L247 619L247-117L154-117L154 12Q145 5 134.50-0.50Q124-6 111-6Q99-6 82.50 0.50Q66 7 51 32.50Q36 58 25.50 109Q15 160 15 249M154 503Q139 496 130 481Q121 466 116.50 445.50Q112 425 111 400.50Q110 376 110 351L110 199Q110 179 111.50 159Q113 139 117 123Q121 107 126.50 97Q132 87 141 87Q149 87 154 93L154 503Z"  horiz-adv-x="271" vert-adv-y="1000"  />

      
      <glyph glyph-name="uni72" unicode="&#x72;" d="M209 619L209 503Q189 498 173.50 486Q158 474 146.50 459Q135 444 129 427.50Q123 411 123 396L123 0L30 0L30 505Q30 520 25.50 530Q21 540 9 551L65 619Q98 607 109 588.50Q120 570 123 531Q135 558 143.50 575.50Q152 593 161 602.50Q170 612 180.50 615.50Q191 619 206 619L209 619Z"  horiz-adv-x="219" vert-adv-y="1000"  />

      
      <glyph glyph-name="uni73" unicode="&#x73;" d="M71-6Q53-6 40-2.50Q27 1 10 10L10 102Q21 91 30.50 87Q40 83 49 83Q65 83 78.50 94.50Q92 106 92 133Q92 159 82 197Q72 235 52 294Q32 351 21.50 398Q11 445 11 482Q11 548 36 583.50Q61 619 107 619Q124 619 139 613.50Q154 608 168 599L168 514Q163 520 154 525Q145 530 134 530Q119 530 108 518.50Q97 507 97 484Q97 469 100.50 450.50Q104 432 108.50 413Q113 394 118.50 376.50Q124 359 129 346Q150 285 164 229Q178 173 178 134Q178 70 153.50 32Q129-6 71-6Z"  horiz-adv-x="188" vert-adv-y="1000"  />

      
      <glyph glyph-name="uni74" unicode="&#x74;" d="M149 713L149 613L193 613L193 535L149 535L149 115Q149 100 155.50 91Q162 82 173 82Q180 82 193 89L193 10Q182 2 171-2Q160-6 144-6Q105-6 80.50 20.50Q56 47 56 99L56 535L8 535L8 562Q21 575 31 586Q41 597 53 613Q65 629 81 652Q97 675 122 713L149 713Z"  horiz-adv-x="208" vert-adv-y="1000"  />

      
      <glyph glyph-name="uni75" unicode="&#x75;" d="M118 613L118 118Q118 100 122 93.50Q126 87 137 87Q148 87 154.50 94.50Q161 102 161 110L161 613L254 613L254 99Q254 88 257 80.50Q260 73 272 61L215-6Q194 1 184 11.50Q174 22 168 37Q150 16 135.50 5Q121-6 98-6Q65-6 45 20.50Q25 47 25 92L25 613L118 613Z"  horiz-adv-x="281" vert-adv-y="1000"  />

      
      <glyph glyph-name="uni76" unicode="&#x76;" d="M97 613L123 115L146 613L238 613L166-6L80-6L6 613L97 613Z"  horiz-adv-x="244" vert-adv-y="1000"  />

      
      <glyph glyph-name="uni77" unicode="&#x77;" d="M103 613L122 195L151 613L233 613L264 199L283 613L375 613L302-6L229-6L194 387L156-6L84-6L10 613L103 613Z"  horiz-adv-x="385" vert-adv-y="1000"  />

      
      <glyph glyph-name="uni78" unicode="&#x78;" d="M106 613L127 399L150 613L240 613L164 318L240 0L147 0L127 223L106 0L10 0L89 318L16 613L106 613Z"  horiz-adv-x="250" vert-adv-y="1000"  />

      
      <glyph glyph-name="uni79" unicode="&#x79;" d="M98 613L124 196L146 613L238 613L171 31Q167-2 158-29.50Q149-57 132.50-76.50Q116-96 91.50-106.50Q67-117 34-117L12-117L12-28L24-28Q57-28 66.50-15Q76-2 80 23L6 613L98 613Z"  horiz-adv-x="244" vert-adv-y="1000"  />

      
      <glyph glyph-name="uni7a" unicode="&#x7a;" d="M187 613L111 72L187 72L187 0L11 0L88 541L14 541L14 613L187 613Z"  horiz-adv-x="198" vert-adv-y="1000"  />

      
      <glyph glyph-name="uni7b" unicode="&#x7b;" d="M257 717L239 717Q224 717 213 713Q202 709 195 698Q188 687 184.50 668.50Q181 650 181 621L181 523Q181 491 178 462Q175 433 165.50 409Q156 385 138 366Q120 347 90 335Q145 312 163 266Q181 220 181 147L181 45Q181-11 194-31Q207-51 239-51L257-51L257-136L247-136Q169-136 131-98.50Q93-61 93 31L93 137Q93 176 91 204.50Q89 233 80.50 251.50Q72 270 55.50 279.50Q39 289 10 290L10 379Q40 380 56.50 390Q73 400 81 418.50Q89 437 91 465.50Q93 494 93 533L93 627Q93 669 100 701.50Q107 734 124.50 756.50Q142 779 171.50 790.50Q201 802 246 802L257 802L257 717Z"  horiz-adv-x="271" vert-adv-y="1000"  />

      
      <glyph glyph-name="uni7c" unicode="&#x7c;" d="M168 796L168-117L92-117L92 796L168 796Z"  horiz-adv-x="260" vert-adv-y="1000"  />

      
      <glyph glyph-name="uni7d" unicode="&#x7d;" d="M14 802L25 802Q70 802 99.50 790.50Q129 779 146.50 756.50Q164 734 171 701.50Q178 669 178 627L178 533Q178 494 180 465.50Q182 437 190 418.50Q198 400 214.50 390Q231 380 261 379L261 290Q232 289 215 279.50Q198 270 190 251.50Q182 233 180 204.50Q178 176 178 137L178 31Q178-61 140-98.50Q102-136 24-136L14-136L14-51L32-51Q64-51 77-31Q90-11 90 45L90 147Q90 220 108 266Q126 312 181 335Q151 347 133 366Q115 385 105.50 409Q96 433 93 462Q90 491 90 523L90 621Q90 650 86.50 668.50Q83 687 76 698Q69 709 58 713Q47 717 32 717L14 717L14 802Z"  horiz-adv-x="271" vert-adv-y="1000"  />

      
      <glyph glyph-name="uni7e" unicode="&#x7e;" d="M49 379Q78 414 105 426Q132 438 158 438Q186 438 209.50 425.50Q233 413 255 398.50Q277 384 297 371.50Q317 359 337 359Q363 359 385 375.50Q407 392 441 430L441 325Q412 290 385.50 277.50Q359 265 336 265Q307 265 283 277.50Q259 290 237 304.50Q215 319 195.50 331.50Q176 344 156 344Q131 344 106 327Q81 310 49 274L49 379Z"  horiz-adv-x="489" vert-adv-y="1000"  />

      
      <glyph glyph-name="unia1" unicode="&#xa1;" d="M126 634Q126 609 109 592Q92 575 67 575Q43 575 26 592.50Q9 610 9 634Q9 658 26 675Q43 692 67 692Q92 692 109 675Q126 658 126 634M82 449Q89 390 96.50 325.50Q104 261 110 203Q116 145 120 100Q124 55 124 35Q124-37 110.50-75Q97-113 68-113Q12-113 12 27Q12 64 16.50 116.50Q21 169 27 227Q33 285 40 343Q47 401 52 449L82 449Z"  horiz-adv-x="135" vert-adv-y="1000"  />

      
      <glyph glyph-name="unia2" unicode="&#xa2;" d="M167 729L191 729L172 618Q177 617 181 615.50Q185 614 188 613L188 518Q177 526 164 526Q134 526 121 485Q108 444 108 366L108 269Q108 230 109.50 196.50Q111 163 116.50 139Q122 115 131.50 101Q141 87 156 87Q173 87 188 99L188 10Q182 5 167-0.50Q152-6 138-6Q116-6 97 3.50Q78 13 63 36L33-117L8-117L44 68Q30 101 22.50 154.50Q15 208 15 265L15 348Q15 480 48 549Q81 618 147 619L167 729Z"  horiz-adv-x="198" vert-adv-y="1000"  />

      
      <glyph glyph-name="unia3" unicode="&#xa3;" d="M257 693Q230 688 212 677.50Q194 667 180 641Q172 626 166.50 606.50Q161 587 157 556Q153 525 151 480.50Q149 436 148 372L222 372L222 284L143 284Q142 261 139.50 235Q137 209 132.50 184.50Q128 160 122.50 137.50Q117 115 110 98Q117 101 124 101.50Q131 102 138 102Q141 102 151.50 101Q162 100 175 98.50Q188 97 199 96Q210 95 213 95Q250 95 279 118L279 23Q264 9 243 1.50Q222-6 193-6Q184-6 169.50-4Q155-2 139 0Q123 2 108 4Q93 6 83 6Q62 6 48.50 3.50Q35 1 13-6L13 53Q25 72 33 93.50Q41 115 45.50 141Q50 167 51.50 199.50Q53 232 53 274L53 284L13 284L13 372L53 372Q54 457 58 518.50Q62 580 71 622Q87 704 130.50 752Q174 800 257 802L257 693Z"  horiz-adv-x="292" vert-adv-y="1000"  />

      
      <glyph glyph-name="unia4" unicode="&#xa4;" d="M165 565Q188 579 217 586.50Q246 594 270 594Q295 594 321.50 587.50Q348 581 374 565L432 623L501 554L443 496Q454 475 462.50 448.50Q471 422 471 392Q471 334 442 287L501 228L432 159L373 218Q346 202 320 195.50Q294 189 269 189Q243 189 215 196.50Q187 204 165 218L106 159L37 228L96 287Q82 306 74 334.50Q66 363 66 392Q66 449 95 496L37 554L106 623L165 565M164 392Q164 370 172.50 351Q181 332 195 317.50Q209 303 228.50 294.50Q248 286 269 286Q291 286 310.50 294.50Q330 303 344 317.50Q358 332 366.50 351.50Q375 371 375 392Q375 414 366.50 433Q358 452 343.50 466Q329 480 309.50 488.50Q290 497 269 497Q248 497 229 489Q210 481 195.50 467Q181 453 172.50 433.50Q164 414 164 392Z"  horiz-adv-x="538" vert-adv-y="1000"  />

      
      <glyph glyph-name="unia5" unicode="&#xa5;" d="M120 796L157 593L194 796L302 796L209 380L302 380L302 297L209 297L209 243L302 243L302 160L209 160L209 0L102 0L102 160L11 160L11 243L102 243L102 297L11 297L11 380L102 380L11 796L120 796Z"  horiz-adv-x="313" vert-adv-y="1000"  />

      
      <glyph glyph-name="unia6" unicode="&#xa6;" d="M168 796L168 410L92 410L92 796L168 796M168 269L168-117L92-117L92 269L168 269Z"  horiz-adv-x="260" vert-adv-y="1000"  />

      
      <glyph glyph-name="unia7" unicode="&#xa7;" d="M150 802Q182 802 206.50 787Q231 772 253 755L253 650Q225 679 203.50 694Q182 709 164 709Q147 709 138 696.50Q129 684 129 667Q129 647 141.50 621.50Q154 596 180 561Q230 492 253.50 439Q277 386 277 330Q277 278 261.50 235Q246 192 212 147Q229 113 243 79Q257 45 257 5Q257-55 224.50-88.50Q192-122 144-122Q131-122 109.50-117Q88-112 57-95L57 14Q78-6 93.50-17.50Q109-29 127-29Q141-29 151-19Q161-9 161 8Q161 35 140.50 72.50Q120 110 89 156Q58 202 36.50 249Q15 296 15 352Q15 410 30.50 455.50Q46 501 77 543Q63 569 49.50 605Q36 641 36 676Q36 703 45 726Q54 749 70 766Q86 783 106.50 792.50Q127 802 150 802M120 475Q105 446 100.50 421Q96 396 96 379Q96 364 98.50 348Q101 332 109.50 312Q118 292 132.50 267Q147 242 171 209Q183 230 189.50 249Q196 268 196 295Q196 330 183 366Q170 402 154 425L120 475Z"  horiz-adv-x="292" vert-adv-y="1000"  />

      
      <glyph glyph-name="unia8" unicode="&#xa8;" d="M115 763Q135 763 145.50 746.50Q156 730 156 707Q156 683 145 667Q134 651 114 651Q93 651 83 669Q73 687 73 707Q73 730 84.50 746.50Q96 763 115 763M220 763Q240 763 250.50 746.50Q261 730 261 707Q261 683 250 667Q239 651 219 651Q198 651 188 668.50Q178 686 178 707Q178 730 189.50 746.50Q201 763 220 763Z"  horiz-adv-x="333" vert-adv-y="1000"  />

      
      <glyph glyph-name="unia9" unicode="&#xa9;" d="M401 158Q378 143 357 137Q336 131 310 131Q274 131 245.50 151Q217 171 198 207Q179 243 169 292Q159 341 159 399Q159 453 168.50 502Q178 551 196.50 588.50Q215 626 243.50 648.50Q272 671 310 671Q334 671 356 665.50Q378 660 401 646L401 561Q371 590 332 590Q296 590 274.50 541Q253 492 253 401Q253 315 274 263.50Q295 212 330 212Q368 212 401 241L401 158M30 395Q30 595 101 698.50Q172 802 302 802Q369 802 420 774.50Q471 747 504.50 694.50Q538 642 555 566.50Q572 491 572 395Q572 291 553 214.50Q534 138 498.50 88.50Q463 39 413.50 15Q364-9 303-9Q233-9 181.50 19.50Q130 48 96.50 100.50Q63 153 46.50 227.50Q30 302 30 395M91 395Q91 225 142 135.50Q193 46 303 46Q409 46 460 131Q511 216 511 395Q511 569 458 658Q405 747 302 747Q191 747 141 657Q91 567 91 395Z"  horiz-adv-x="602" vert-adv-y="1000"  />

      
      <glyph glyph-name="uniaa" unicode="&#xaa;" d="M14 619Q14 653 21 685.50Q28 718 43 743.50Q58 769 82.50 784.50Q107 800 142 800L171 800L171 486Q171 468 174 452.50Q177 437 188 429L151 376Q140 379 133 386.50Q126 394 118 412Q111 397 98 386.50Q85 376 73 376Q56 376 44.50 390.50Q33 405 26 429.50Q19 454 16.50 486Q14 518 14 554L14 619M110 722Q78 705 78 620L78 530Q78 513 79 496.50Q80 480 82.50 467Q85 454 89 445.50Q93 437 98 437Q101 437 105 437.50Q109 438 110 441L110 722Z"  horiz-adv-x="196" vert-adv-y="1000"  />

      
      <glyph glyph-name="uniab" unicode="&#xab;" d="M177 587L92 342L177 96L102 96L15 342L99 587L177 587M296 587L211 342L296 96L221 96L134 342L218 587L296 587Z"  horiz-adv-x="302" vert-adv-y="1000"  />

      
      <glyph glyph-name="uniac" unicode="&#xac;" d="M49 489L441 489L441 217L348 217L348 396L49 396L49 489Z"  horiz-adv-x="489" vert-adv-y="1000"  />

      
      <glyph glyph-name="uniad" unicode="&#xad;" d="M207 353L207 260L12 260L12 353L207 353Z"  horiz-adv-x="219" vert-adv-y="1000"  />

      
      <glyph glyph-name="uniae" unicode="&#xae;" d="M30 395Q30 595 101 698.50Q172 802 302 802Q369 802 420 774.50Q471 747 504.50 694.50Q538 642 555 566.50Q572 491 572 395Q572 291 553 214.50Q534 138 498.50 88.50Q463 39 413.50 15Q364-9 303-9Q233-9 181.50 19.50Q130 48 96.50 100.50Q63 153 46.50 227.50Q30 302 30 395M91 395Q91 225 142 135.50Q193 46 303 46Q409 46 460 131Q511 216 511 395Q511 569 458 658Q405 747 302 747Q191 747 141 657Q91 567 91 395M179 662L292 662Q367 662 402 626Q437 590 437 522Q437 470 412.50 438.50Q388 407 353 399Q366 394 377.50 384Q389 374 400 347Q411 320 423 271.50Q435 223 450 142L355 142Q341 224 330.50 269.50Q320 315 310.50 336.50Q301 358 291.50 362.50Q282 367 269 367L269 142L179 142L179 662M278 447Q310 447 327.50 464Q345 481 345 516Q345 551 328.50 566.50Q312 582 280 582L269 582L269 447L278 447Z"  horiz-adv-x="602" vert-adv-y="1000"  />

      
      <glyph glyph-name="uniaf" unicode="&#xaf;" d="M260 738L260 678L73 678L73 738L260 738Z"  horiz-adv-x="333" vert-adv-y="1000"  />

      
      <glyph glyph-name="unib0" unicode="&#xb0;" d="M198 802Q225 802 249.50 792Q274 782 292.50 764Q311 746 322 721Q333 696 333 667Q333 639 322.50 614Q312 589 293.50 570.50Q275 552 250.50 541.50Q226 531 198 531Q170 531 145.50 542Q121 553 102.50 571.50Q84 590 73.50 614.50Q63 639 63 667Q63 695 74 720Q85 745 103.50 763Q122 781 146.50 791.50Q171 802 198 802M116 667Q116 632 140 608Q164 584 198 584Q232 584 256 608Q280 632 280 667Q280 701 256.50 725Q233 749 198 749Q163 749 139.50 725Q116 701 116 667Z"  horiz-adv-x="396" vert-adv-y="1000"  />

      
      <glyph glyph-name="unib1" unicode="&#xb1;" d="M49 421L198 421L198 589L291 589L291 421L441 421L441 328L291 328L291 159L198 159L198 328L49 328L49 421M49 93L441 93L441 0L49 0L49 93Z"  horiz-adv-x="489" vert-adv-y="1000"  />

      
      <glyph glyph-name="unib2" unicode="&#xb2;" d="M196 793Q196 753 183.50 694Q171 635 147 557L200 557L200 499L47 499Q61 538 73 580Q85 622 94 660.50Q103 699 108 732Q113 765 113 786Q113 801 106 810.50Q99 820 84 820Q76 820 67.50 815.50Q59 811 49 800L49 867Q64 878 78.50 882.50Q93 887 111 887Q196 887 196 793Z"  horiz-adv-x="256" vert-adv-y="1000"  />

      
      <glyph glyph-name="unib3" unicode="&#xb3;" d="M71 717Q89 717 99 725Q109 733 114.50 743.50Q120 754 121.50 765Q123 776 123 781Q123 805 113.50 817Q104 829 89 829Q76 829 65 824L65 880Q75 883 85 885Q95 887 105 887Q146 887 174.50 859.50Q203 832 203 784Q203 756 191 733.50Q179 711 152 698Q179 687 193 664Q207 641 207 612Q207 586 197.50 565Q188 544 172 528.50Q156 513 134.50 504.50Q113 496 89 496Q84 496 78.50 496.50Q73 497 65 498L65 559Q98 561 111.50 576.50Q125 592 125 613Q125 635 110 651.50Q95 668 65 668L65 717L71 717Z"  horiz-adv-x="249" vert-adv-y="1000"  />

      
      <glyph glyph-name="unib4" unicode="&#xb4;" d="M261 802L185 654L130 654L166 802L261 802Z"  horiz-adv-x="333" vert-adv-y="1000"  />

      
      <glyph glyph-name="unib5" unicode="&#xb5;" d="M236-5Q200-5 186 22Q177-10 154-10Q143-10 132.50-0.50Q122 9 120 26L120-117L27-117L27 613L120 613L120 188Q120 131 126 107Q132 83 146 83Q152 83 156.50 87.50Q161 92 164 103.50Q167 115 169 134.50Q171 154 171 185L171 613L264 613L264 104Q264 88 268.50 84Q273 80 279 80Q286 80 297 86L297 15Q283 4 265.50-0.50Q248-5 236-5Z"  horiz-adv-x="302" vert-adv-y="1000"  />

      
      <glyph glyph-name="unib6" unicode="&#xb6;" d="M439 796L439 719L388 719L388-118L315-118L315 719L267 719L267-118L193-118L193 395Q145 398 108.50 414.50Q72 431 47.50 457Q23 483 11 517Q-1 551-1 589Q-1 686 68.50 741Q138 796 270 796L439 796Z"  horiz-adv-x="438" vert-adv-y="1000"  />

      
      <glyph glyph-name="unib7" unicode="&#xb7;" d="M68 462Q92 462 109 444.50Q126 427 126 403Q126 379 109 362Q92 345 68 345Q43 345 26 362Q9 379 9 403Q9 428 26 445Q43 462 68 462Z"  horiz-adv-x="135" vert-adv-y="1000"  />

      
      <glyph glyph-name="unib8" unicode="&#xb8;" d="M176 6Q207 0 223-16.50Q239-33 239-54Q239-77 218.50-97Q198-117 156-117Q144-117 132-115.50Q120-114 103-111L114-74Q119-75 124.50-75Q130-75 134-75Q149-75 157-68Q165-61 165-52Q165-46 159-38.50Q153-31 135-25L176 6Z"  horiz-adv-x="333" vert-adv-y="1000"  />

      
      <glyph glyph-name="unib9" unicode="&#xb9;" d="M182 887L182 499L103 499L103 790L79 790L79 802L182 887Z"  horiz-adv-x="251" vert-adv-y="1000"  />

      
      <glyph glyph-name="uniba" unicode="&#xba;" d="M88 802Q126 802 147 745Q168 688 168 586Q168 545 163.50 507Q159 469 149.50 440Q140 411 125.50 393.50Q111 376 91 376Q66 376 50 396.50Q34 417 25 448.50Q16 480 13 518Q10 556 10 591Q10 636 15 674.50Q20 713 30 741.50Q40 770 54.50 786Q69 802 88 802M89 730Q83 727 80 702.50Q77 678 75.50 647.50Q74 617 74 589Q74 561 74 550Q74 507 78 480Q82 453 89 448Q94 455 97 466.50Q100 478 101.50 498.50Q103 519 103.50 551Q104 583 104 632Q104 720 89 730Z"  horiz-adv-x="178" vert-adv-y="1000"  />

      
      <glyph glyph-name="unibb" unicode="&#xbb;" d="M84 587L168 342L81 96L6 96L91 342L6 587L84 587M203 587L287 342L200 96L125 96L210 342L125 587L203 587Z"  horiz-adv-x="302" vert-adv-y="1000"  />

      
      <glyph glyph-name="unibc" unicode="&#xbc;" d="M155 802L155 414L76 414L76 705L52 705L52 717L155 802M336 802L380 802L124-17L79-17L336 802M378 388L422 388L422 170L457 170L457 110L422 110L422 0L347 0L347 110L231 110L231 145L378 388M347 254L295 170L347 170L347 254Z"  horiz-adv-x="458" vert-adv-y="1000"  />

      
      <glyph glyph-name="unibd" unicode="&#xbd;" d="M155 802L155 414L76 414L76 705L52 705L52 717L155 802M336 802L380 802L124-17L79-17L336 802M416 294Q416 254 403.50 195Q391 136 367 58L420 58L420 0L267 0Q281 39 293 81Q305 123 314 161.50Q323 200 328 233Q333 266 333 287Q333 302 326 311.50Q319 321 304 321Q296 321 287.50 316.50Q279 312 269 301L269 368Q284 379 298.50 383.50Q313 388 331 388Q416 388 416 294Z"  horiz-adv-x="458" vert-adv-y="1000"  />

      
      <glyph glyph-name="unibe" unicode="&#xbe;" d="M49 632Q67 632 77 640Q87 648 92.50 658.50Q98 669 99.50 680Q101 691 101 696Q101 720 91.50 732Q82 744 67 744Q54 744 43 739L43 795Q53 798 63 800Q73 802 83 802Q124 802 152.50 774.50Q181 747 181 699Q181 671 169 648.50Q157 626 130 613Q157 602 171 579Q185 556 185 527Q185 501 175.50 480Q166 459 150 443.50Q134 428 112.50 419.50Q91 411 67 411Q62 411 56.50 411.50Q51 412 43 413L43 474Q76 476 89.50 491.50Q103 507 103 528Q103 550 88 566.50Q73 583 43 583L43 632L49 632M336 802L380 802L124-17L79-17L336 802M378 388L422 388L422 170L457 170L457 110L422 110L422 0L347 0L347 110L231 110L231 145L378 388M347 254L295 170L347 170L347 254Z"  horiz-adv-x="458" vert-adv-y="1000"  />

      
      <glyph glyph-name="unibf" unicode="&#xbf;" d="M96-117Q56-117 32-86Q8-55 8 2Q8 50 21 106Q34 162 49 223Q63 281 72.50 336.50Q82 392 82 444L82 449L124 449Q125 415 125.50 383.50Q126 352 126 332Q126 285 122 239Q118 193 113.50 153.50Q109 114 105.50 84.50Q102 55 102 43Q102-3 129-3Q143-3 156 10L156-97Q140-107 127-112Q114-117 96-117M85 574Q61 574 44 591.50Q27 609 27 633Q27 657 44 674Q61 691 85 691Q110 691 127 674Q144 657 144 633Q144 608 127 591Q110 574 85 574Z"  horiz-adv-x="167" vert-adv-y="1000"  />

      
      <glyph glyph-name="unic0" unicode="&#xc0;" d="M218 802L302 0L194 0L188 142L128 142L118 0L11 0L101 802L218 802M153 670Q152 652 151.50 626.50Q151 601 150.50 573Q150 545 149 516.50Q148 488 147 465L134 247L181 247L171 463Q169 515 167 566.50Q165 618 162 670L153 670M169 990L205 842L150 842L74 990L169 990Z"  horiz-adv-x="313" vert-adv-y="1000"  />

      
      <glyph glyph-name="unic1" unicode="&#xc1;" d="M218 802L302 0L194 0L188 142L128 142L118 0L11 0L101 802L218 802M153 670Q152 652 151.50 626.50Q151 601 150.50 573Q150 545 149 516.50Q148 488 147 465L134 247L181 247L171 463Q169 515 167 566.50Q165 618 162 670L153 670M251 990L175 842L120 842L156 990L251 990Z"  horiz-adv-x="313" vert-adv-y="1000"  />

      
      <glyph glyph-name="unic2" unicode="&#xc2;" d="M218 802L302 0L194 0L188 142L128 142L118 0L11 0L101 802L218 802M153 670Q152 652 151.50 626.50Q151 601 150.50 573Q150 545 149 516.50Q148 488 147 465L134 247L181 247L171 463Q169 515 167 566.50Q165 618 162 670L153 670M213 984L240 839L183 839L157 902L131 839L74 839L103 984L213 984Z"  horiz-adv-x="313" vert-adv-y="1000"  />

      
      <glyph glyph-name="unic3" unicode="&#xc3;" d="M218 802L302 0L194 0L188 142L128 142L118 0L11 0L101 802L218 802M153 670Q152 652 151.50 626.50Q151 601 150.50 573Q150 545 149 516.50Q148 488 147 465L134 247L181 247L171 463Q169 515 167 566.50Q165 618 162 670L153 670M122 966Q136 966 145.50 960.50Q155 955 162.50 948Q170 941 177.50 935.50Q185 930 196 930Q203 930 209 939.50Q215 949 217 966L246 966Q247 959 247.50 949Q248 939 248 932Q248 892 231.50 864Q215 836 189 836Q175 836 166 842Q157 848 150 855.50Q143 863 136 869Q129 875 120 875Q115 875 109 868Q103 861 100 839L68 839Q67 843 66.50 852.50Q66 862 66 870Q66 910 81 938Q96 966 122 966Z"  horiz-adv-x="313" vert-adv-y="1000"  />

      
      <glyph glyph-name="unic4" unicode="&#xc4;" d="M218 802L302 0L194 0L188 142L128 142L118 0L11 0L101 802L218 802M153 670Q152 652 151.50 626.50Q151 601 150.50 573Q150 545 149 516.50Q148 488 147 465L134 247L181 247L171 463Q169 515 167 566.50Q165 618 162 670L153 670M105 951Q125 951 135.50 934.50Q146 918 146 895Q146 871 135 855Q124 839 104 839Q83 839 73 857Q63 875 63 895Q63 918 74.50 934.50Q86 951 105 951M210 951Q230 951 240.50 934.50Q251 918 251 895Q251 871 240 855Q229 839 209 839Q188 839 178 856.50Q168 874 168 895Q168 918 179.50 934.50Q191 951 210 951Z"  horiz-adv-x="313" vert-adv-y="1000"  />

      
      <glyph glyph-name="unic5" unicode="&#xc5;" d="M218 802L302 0L194 0L188 142L128 142L118 0L11 0L101 802L218 802M153 670Q152 652 151.50 626.50Q151 601 150.50 573Q150 545 149 516.50Q148 488 147 465L134 247L181 247L171 463Q169 515 167 566.50Q165 618 162 670L153 670M157 980Q191 980 214 956.50Q237 933 237 900Q237 883 230.50 868.50Q224 854 213 843.50Q202 833 187.50 826.50Q173 820 157 820Q124 820 100.50 843.50Q77 867 77 900Q77 933 100 956.50Q123 980 157 980M115 900Q115 882 127.50 870Q140 858 157 858Q175 858 187 870Q199 882 199 900Q199 918 186.50 930Q174 942 157 942Q139 942 127 929.50Q115 917 115 900Z"  horiz-adv-x="313" vert-adv-y="1000"  />

      
      <glyph glyph-name="unic6" unicode="&#xc6;" d="M366 796L366 691L297 691L297 440L371 440L371 335L297 335L297 105L371 105L371 0L190 0L190 140L133 140L119 0L11 0L128 796L366 796M185 691L142 245L190 245L190 691L185 691Z"  horiz-adv-x="385" vert-adv-y="1000"  />

      
      <glyph glyph-name="unic7" unicode="&#xc7;" d="M18 403Q18 499 32.50 573.50Q47 648 72 698.50Q97 749 129 775.50Q161 802 196 802Q209 802 222 798.50Q235 795 249 787L249 688Q241 692 231.50 694.50Q222 697 217 697Q175 697 152.50 626Q130 555 130 416Q130 364 132.50 309.50Q135 255 144 210Q153 165 169.50 136Q186 107 214 107Q225 107 232 108.50Q239 110 249 117L249 11Q240 3 232.50 0Q225-3 217-6Q236-15 242-26Q248-37 248-51Q248-78 226.50-97.50Q205-117 163-117Q154-117 140.50-116Q127-115 105-111L114-71Q119-72 123.50-72.50Q128-73 132-73Q149-73 156-67Q163-61 163-51Q163-39 154.50-33.50Q146-28 130-23L166 0Q125 10 97 49.50Q69 89 51.50 145Q34 201 26 268.50Q18 336 18 403Z"  horiz-adv-x="260" vert-adv-y="1000"  />

      
      <glyph glyph-name="unic8" unicode="&#xc8;" d="M210 796L210 691L134 691L134 440L210 440L210 335L134 335L134 105L210 105L210 0L27 0L27 796L210 796M122 990L158 842L103 842L27 990L122 990Z"  horiz-adv-x="219" vert-adv-y="1000"  />

      
      <glyph glyph-name="unic9" unicode="&#xc9;" d="M210 796L210 691L134 691L134 440L210 440L210 335L134 335L134 105L210 105L210 0L27 0L27 796L210 796M204 990L128 842L73 842L109 990L204 990Z"  horiz-adv-x="219" vert-adv-y="1000"  />

      
      <glyph glyph-name="unica" unicode="&#xca;" d="M210 796L210 691L134 691L134 440L210 440L210 335L134 335L134 105L210 105L210 0L27 0L27 796L210 796M176 984L203 839L146 839L120 902L94 839L37 839L66 984L176 984Z"  horiz-adv-x="219" vert-adv-y="1000"  />

      
      <glyph glyph-name="unicb" unicode="&#xcb;" d="M210 796L210 691L134 691L134 440L210 440L210 335L134 335L134 105L210 105L210 0L27 0L27 796L210 796M65 951Q85 951 95.50 934.50Q106 918 106 895Q106 871 95 855Q84 839 64 839Q43 839 33 857Q23 875 23 895Q23 918 34.50 934.50Q46 951 65 951M170 951Q190 951 200.50 934.50Q211 918 211 895Q211 871 200 855Q189 839 169 839Q148 839 138 856.50Q128 874 128 895Q128 918 139.50 934.50Q151 951 170 951Z"  horiz-adv-x="219" vert-adv-y="1000"  />

      
      <glyph glyph-name="unicc" unicode="&#xcc;" d="M134 796L134 0L27 0L27 796L134 796M93 990L129 842L74 842L-2 990L93 990Z"  horiz-adv-x="161" vert-adv-y="1000"  />

      
      <glyph glyph-name="unicd" unicode="&#xcd;" d="M134 796L134 0L27 0L27 796L134 796M175 990L99 842L44 842L80 990L175 990Z"  horiz-adv-x="161" vert-adv-y="1000"  />

      
      <glyph glyph-name="unice" unicode="&#xce;" d="M134 796L134 0L27 0L27 796L134 796M137 984L164 839L107 839L81 902L55 839L-2 839L27 984L137 984Z"  horiz-adv-x="161" vert-adv-y="1000"  />

      
      <glyph glyph-name="unicf" unicode="&#xcf;" d="M134 796L134 0L27 0L27 796L134 796M29 951Q49 951 59.50 934.50Q70 918 70 895Q70 871 59 855Q48 839 28 839Q7 839-3 857Q-13 875-13 895Q-13 918-1.50 934.50Q10 951 29 951M134 951Q154 951 164.50 934.50Q175 918 175 895Q175 871 164 855Q153 839 133 839Q112 839 102 856.50Q92 874 92 895Q92 918 103.50 934.50Q115 951 134 951Z"  horiz-adv-x="161" vert-adv-y="1000"  />

      
      <glyph glyph-name="unid0" unicode="&#xd0;" d="M27 368L0 368L0 428L27 428L27 796L64 796Q113 796 150.50 779Q188 762 215 733Q242 704 259.50 665.50Q277 627 287.50 583Q298 539 302 492.50Q306 446 306 402Q306 369 303.50 326.50Q301 284 292.50 239.50Q284 195 269 152Q254 109 229.50 75Q205 41 169 20.50Q133 0 84 0L27 0L27 368M134 428L167 428L167 368L134 368L134 130Q171 157 182.50 223.50Q194 290 194 399Q194 438 192 479.50Q190 521 183.50 557.50Q177 594 165 622Q153 650 134 663L134 428Z"  horiz-adv-x="323" vert-adv-y="1000"  />

      
      <glyph glyph-name="unid1" unicode="&#xd1;" d="M125 796L192 381L198 381L186 796L292 796L292 0L198 0L125 441L121 441L133 0L27 0L27 796L125 796M125 966Q139 966 148.50 960.50Q158 955 165.50 948Q173 941 180.50 935.50Q188 930 199 930Q206 930 212 939.50Q218 949 220 966L249 966Q250 959 250.50 949Q251 939 251 932Q251 892 234.50 864Q218 836 192 836Q178 836 169 842Q160 848 153 855.50Q146 863 139 869Q132 875 123 875Q118 875 112 868Q106 861 103 839L71 839Q70 843 69.50 852.50Q69 862 69 870Q69 910 84 938Q99 966 125 966Z"  horiz-adv-x="319" vert-adv-y="1000"  />

      
      <glyph glyph-name="unid2" unicode="&#xd2;" d="M162 802Q197 802 223.50 773.50Q250 745 268 691.50Q286 638 295.50 563Q305 488 305 395Q305 314 296.50 241Q288 168 271 113Q254 58 227.50 26Q201-6 164-6Q128-6 100.50 25.50Q73 57 54.50 110.50Q36 164 27 235.50Q18 307 18 387Q18 486 27.50 563Q37 640 55.50 693Q74 746 100.50 774Q127 802 162 802M162 680Q138 642 134 572.50Q130 503 130 403Q130 340 131.50 293Q133 246 136.50 211.50Q140 177 146 153.50Q152 130 162 114Q173 135 179.50 158.50Q186 182 189 215Q192 248 192.50 293.50Q193 339 193 403Q193 464 191.50 509Q190 554 186.50 587Q183 620 177 642.50Q171 665 162 680M174 990L210 842L155 842L79 990L174 990Z"  horiz-adv-x="323" vert-adv-y="1000"  />

      
      <glyph glyph-name="unid3" unicode="&#xd3;" d="M162 802Q197 802 223.50 773.50Q250 745 268 691.50Q286 638 295.50 563Q305 488 305 395Q305 314 296.50 241Q288 168 271 113Q254 58 227.50 26Q201-6 164-6Q128-6 100.50 25.50Q73 57 54.50 110.50Q36 164 27 235.50Q18 307 18 387Q18 486 27.50 563Q37 640 55.50 693Q74 746 100.50 774Q127 802 162 802M162 680Q138 642 134 572.50Q130 503 130 403Q130 340 131.50 293Q133 246 136.50 211.50Q140 177 146 153.50Q152 130 162 114Q173 135 179.50 158.50Q186 182 189 215Q192 248 192.50 293.50Q193 339 193 403Q193 464 191.50 509Q190 554 186.50 587Q183 620 177 642.50Q171 665 162 680M256 990L180 842L125 842L161 990L256 990Z"  horiz-adv-x="323" vert-adv-y="1000"  />

      
      <glyph glyph-name="unid4" unicode="&#xd4;" d="M162 802Q197 802 223.50 773.50Q250 745 268 691.50Q286 638 295.50 563Q305 488 305 395Q305 314 296.50 241Q288 168 271 113Q254 58 227.50 26Q201-6 164-6Q128-6 100.50 25.50Q73 57 54.50 110.50Q36 164 27 235.50Q18 307 18 387Q18 486 27.50 563Q37 640 55.50 693Q74 746 100.50 774Q127 802 162 802M162 680Q138 642 134 572.50Q130 503 130 403Q130 340 131.50 293Q133 246 136.50 211.50Q140 177 146 153.50Q152 130 162 114Q173 135 179.50 158.50Q186 182 189 215Q192 248 192.50 293.50Q193 339 193 403Q193 464 191.50 509Q190 554 186.50 587Q183 620 177 642.50Q171 665 162 680M218 984L245 839L188 839L162 902L136 839L79 839L108 984L218 984Z"  horiz-adv-x="323" vert-adv-y="1000"  />

      
      <glyph glyph-name="unid5" unicode="&#xd5;" d="M162 802Q197 802 223.50 773.50Q250 745 268 691.50Q286 638 295.50 563Q305 488 305 395Q305 314 296.50 241Q288 168 271 113Q254 58 227.50 26Q201-6 164-6Q128-6 100.50 25.50Q73 57 54.50 110.50Q36 164 27 235.50Q18 307 18 387Q18 486 27.50 563Q37 640 55.50 693Q74 746 100.50 774Q127 802 162 802M162 680Q138 642 134 572.50Q130 503 130 403Q130 340 131.50 293Q133 246 136.50 211.50Q140 177 146 153.50Q152 130 162 114Q173 135 179.50 158.50Q186 182 189 215Q192 248 192.50 293.50Q193 339 193 403Q193 464 191.50 509Q190 554 186.50 587Q183 620 177 642.50Q171 665 162 680M127 966Q141 966 150.50 960.50Q160 955 167.50 948Q175 941 182.50 935.50Q190 930 201 930Q208 930 214 939.50Q220 949 222 966L251 966Q252 959 252.50 949Q253 939 253 932Q253 892 236.50 864Q220 836 194 836Q180 836 171 842Q162 848 155 855.50Q148 863 141 869Q134 875 125 875Q120 875 114 868Q108 861 105 839L73 839Q72 843 71.50 852.50Q71 862 71 870Q71 910 86 938Q101 966 127 966Z"  horiz-adv-x="323" vert-adv-y="1000"  />

      
      <glyph glyph-name="unid6" unicode="&#xd6;" d="M162 802Q197 802 223.50 773.50Q250 745 268 691.50Q286 638 295.50 563Q305 488 305 395Q305 314 296.50 241Q288 168 271 113Q254 58 227.50 26Q201-6 164-6Q128-6 100.50 25.50Q73 57 54.50 110.50Q36 164 27 235.50Q18 307 18 387Q18 486 27.50 563Q37 640 55.50 693Q74 746 100.50 774Q127 802 162 802M162 680Q138 642 134 572.50Q130 503 130 403Q130 340 131.50 293Q133 246 136.50 211.50Q140 177 146 153.50Q152 130 162 114Q173 135 179.50 158.50Q186 182 189 215Q192 248 192.50 293.50Q193 339 193 403Q193 464 191.50 509Q190 554 186.50 587Q183 620 177 642.50Q171 665 162 680M110 951Q130 951 140.50 934.50Q151 918 151 895Q151 871 140 855Q129 839 109 839Q88 839 78 857Q68 875 68 895Q68 918 79.50 934.50Q91 951 110 951M215 951Q235 951 245.50 934.50Q256 918 256 895Q256 871 245 855Q234 839 214 839Q193 839 183 856.50Q173 874 173 895Q173 918 184.50 934.50Q196 951 215 951Z"  horiz-adv-x="323" vert-adv-y="1000"  />

      
      <glyph glyph-name="unid7" unicode="&#xd7;" d="M176 353L45 484L113 552L244 420L377 551L444 484L312 353L444 221L377 153L244 285L113 154L45 221L176 353Z"  horiz-adv-x="489" vert-adv-y="1000"  />

      
      <glyph glyph-name="unid8" unicode="&#xd8;" d="M162 802Q182 802 204 789.50Q226 777 248 739L268 802L303 802L269 691Q281 655 288 614Q295 573 298.50 533.50Q302 494 303.50 457.50Q305 421 305 394Q305 316 297 243.50Q289 171 271.50 115.50Q254 60 227.50 27Q201-6 164-6Q135-6 114.50 11Q94 28 75 59L55-6L20-6L55 108Q47 133 40 167.50Q33 202 28 241Q23 280 20.50 321.50Q18 363 18 403Q18 490 27.50 563Q37 636 55 689Q73 742 100 772Q127 802 162 802M190 549Q188 580 186 599Q184 618 181 631Q178 644 173.50 654.50Q169 665 162 680Q148 661 141.50 623Q135 585 132.50 539Q130 493 130 444Q130 395 130 353L190 549M134 251Q135 216 141 177.50Q147 139 162 114Q188 164 190 239L193 443L134 251Z"  horiz-adv-x="323" vert-adv-y="1000"  />

      
      <glyph glyph-name="unid9" unicode="&#xd9;" d="M132 796L132 204Q132 193 134 180.50Q136 168 139.50 156Q143 144 148 134Q153 124 159 118Q174 140 178.50 158Q183 176 183 204L183 796L290 796L290 215Q290 169 280 128.50Q270 88 252.50 58Q235 28 211 11Q187-6 159-6Q129-6 104 11.50Q79 29 61.50 59Q44 89 34.50 129Q25 169 25 215L25 796L132 796M170 990L206 842L151 842L75 990L170 990Z"  horiz-adv-x="315" vert-adv-y="1000"  />

      
      <glyph glyph-name="unida" unicode="&#xda;" d="M132 796L132 204Q132 193 134 180.50Q136 168 139.50 156Q143 144 148 134Q153 124 159 118Q174 140 178.50 158Q183 176 183 204L183 796L290 796L290 215Q290 169 280 128.50Q270 88 252.50 58Q235 28 211 11Q187-6 159-6Q129-6 104 11.50Q79 29 61.50 59Q44 89 34.50 129Q25 169 25 215L25 796L132 796M252 990L176 842L121 842L157 990L252 990Z"  horiz-adv-x="315" vert-adv-y="1000"  />

      
      <glyph glyph-name="unidb" unicode="&#xdb;" d="M132 796L132 204Q132 193 134 180.50Q136 168 139.50 156Q143 144 148 134Q153 124 159 118Q174 140 178.50 158Q183 176 183 204L183 796L290 796L290 215Q290 169 280 128.50Q270 88 252.50 58Q235 28 211 11Q187-6 159-6Q129-6 104 11.50Q79 29 61.50 59Q44 89 34.50 129Q25 169 25 215L25 796L132 796M214 984L241 839L184 839L158 902L132 839L75 839L104 984L214 984Z"  horiz-adv-x="315" vert-adv-y="1000"  />

      
      <glyph glyph-name="unidc" unicode="&#xdc;" d="M132 796L132 204Q132 193 134 180.50Q136 168 139.50 156Q143 144 148 134Q153 124 159 118Q174 140 178.50 158Q183 176 183 204L183 796L290 796L290 215Q290 169 280 128.50Q270 88 252.50 58Q235 28 211 11Q187-6 159-6Q129-6 104 11.50Q79 29 61.50 59Q44 89 34.50 129Q25 169 25 215L25 796L132 796M106 951Q126 951 136.50 934.50Q147 918 147 895Q147 871 136 855Q125 839 105 839Q84 839 74 857Q64 875 64 895Q64 918 75.50 934.50Q87 951 106 951M211 951Q231 951 241.50 934.50Q252 918 252 895Q252 871 241 855Q230 839 210 839Q189 839 179 856.50Q169 874 169 895Q169 918 180.50 934.50Q192 951 211 951Z"  horiz-adv-x="315" vert-adv-y="1000"  />

      
      <glyph glyph-name="unidd" unicode="&#xdd;" d="M120 796L157 593L194 796L302 796L209 380L209 0L102 0L102 380L11 796L120 796M251 990L175 842L120 842L156 990L251 990Z"  horiz-adv-x="313" vert-adv-y="1000"  />

      
      <glyph glyph-name="unide" unicode="&#xde;" d="M134 796L134 628Q175 620 206 599.50Q237 579 258 549Q279 519 289.50 481.50Q300 444 300 402Q300 362 290 324Q280 286 259 255Q238 224 207 201Q176 178 134 168L134 0L27 0L27 796L134 796M134 283Q188 315 188 399Q188 444 173 473Q158 502 134 515L134 283Z"  horiz-adv-x="313" vert-adv-y="1000"  />

      
      <glyph glyph-name="unidf" unicode="&#xdf;" d="M138 802Q244 802 244 629Q244 584 236.50 549Q229 514 207 503Q236 485 247.50 444Q259 403 259 343L259 220Q259 115 234.50 58Q210 1 148-6L148 118Q166 129 166 152L166 409Q166 443 148 464L148 547Q158 554 161.50 571.50Q165 589 165 614Q165 648 160 670Q155 692 138 710Q126 690 122 664Q118 638 118 619L118 0L25 0L25 637Q25 713 54 757.50Q83 802 138 802Z"  horiz-adv-x="271" vert-adv-y="1000"  />

      
      <glyph glyph-name="unie0" unicode="&#xe0;" d="M103-6Q78-6 61 13.50Q44 33 34 68.50Q24 104 19.50 152Q15 200 15 257L15 336Q15 477 64.50 548Q114 619 200 619L246 619L246 155Q246 127 250.50 105.50Q255 84 270 72L216-6Q201-1 190 9Q179 19 166 46Q153 24 136.50 9Q120-6 103-6M108 227Q108 210 109 185.50Q110 161 113 138Q116 115 121.50 99Q127 83 137 83Q147 83 153 89L153 512Q130 500 119 459Q108 418 108 354L108 227M183 802L219 654L164 654L88 802L183 802Z"  horiz-adv-x="281" vert-adv-y="1000"  />

      
      <glyph glyph-name="unie1" unicode="&#xe1;" d="M103-6Q78-6 61 13.50Q44 33 34 68.50Q24 104 19.50 152Q15 200 15 257L15 336Q15 477 64.50 548Q114 619 200 619L246 619L246 155Q246 127 250.50 105.50Q255 84 270 72L216-6Q201-1 190 9Q179 19 166 46Q153 24 136.50 9Q120-6 103-6M108 227Q108 210 109 185.50Q110 161 113 138Q116 115 121.50 99Q127 83 137 83Q147 83 153 89L153 512Q130 500 119 459Q108 418 108 354L108 227M265 802L189 654L134 654L170 802L265 802Z"  horiz-adv-x="281" vert-adv-y="1000"  />

      
      <glyph glyph-name="unie2" unicode="&#xe2;" d="M103-6Q78-6 61 13.50Q44 33 34 68.50Q24 104 19.50 152Q15 200 15 257L15 336Q15 477 64.50 548Q114 619 200 619L246 619L246 155Q246 127 250.50 105.50Q255 84 270 72L216-6Q201-1 190 9Q179 19 166 46Q153 24 136.50 9Q120-6 103-6M108 227Q108 210 109 185.50Q110 161 113 138Q116 115 121.50 99Q127 83 137 83Q147 83 153 89L153 512Q130 500 119 459Q108 418 108 354L108 227M217 796L244 651L187 651L161 714L135 651L78 651L107 796L217 796Z"  horiz-adv-x="281" vert-adv-y="1000"  />

      
      <glyph glyph-name="unie3" unicode="&#xe3;" d="M103-6Q78-6 61 13.50Q44 33 34 68.50Q24 104 19.50 152Q15 200 15 257L15 336Q15 477 64.50 548Q114 619 200 619L246 619L246 155Q246 127 250.50 105.50Q255 84 270 72L216-6Q201-1 190 9Q179 19 166 46Q153 24 136.50 9Q120-6 103-6M108 227Q108 210 109 185.50Q110 161 113 138Q116 115 121.50 99Q127 83 137 83Q147 83 153 89L153 512Q130 500 119 459Q108 418 108 354L108 227M126 778Q140 778 149.50 772.50Q159 767 166.50 760Q174 753 181.50 747.50Q189 742 200 742Q207 742 213 751.50Q219 761 221 778L250 778Q251 771 251.50 761Q252 751 252 744Q252 704 235.50 676Q219 648 193 648Q179 648 170 654Q161 660 154 667.50Q147 675 140 681Q133 687 124 687Q119 687 113 680Q107 673 104 651L72 651Q71 655 70.50 664.50Q70 674 70 682Q70 722 85 750Q100 778 126 778Z"  horiz-adv-x="281" vert-adv-y="1000"  />

      
      <glyph glyph-name="unie4" unicode="&#xe4;" d="M103-6Q78-6 61 13.50Q44 33 34 68.50Q24 104 19.50 152Q15 200 15 257L15 336Q15 477 64.50 548Q114 619 200 619L246 619L246 155Q246 127 250.50 105.50Q255 84 270 72L216-6Q201-1 190 9Q179 19 166 46Q153 24 136.50 9Q120-6 103-6M108 227Q108 210 109 185.50Q110 161 113 138Q116 115 121.50 99Q127 83 137 83Q147 83 153 89L153 512Q130 500 119 459Q108 418 108 354L108 227M119 763Q139 763 149.50 746.50Q160 730 160 707Q160 683 149 667Q138 651 118 651Q97 651 87 669Q77 687 77 707Q77 730 88.50 746.50Q100 763 119 763M224 763Q244 763 254.50 746.50Q265 730 265 707Q265 683 254 667Q243 651 223 651Q202 651 192 668.50Q182 686 182 707Q182 730 193.50 746.50Q205 763 224 763Z"  horiz-adv-x="281" vert-adv-y="1000"  />

      
      <glyph glyph-name="unie5" unicode="&#xe5;" d="M103-6Q78-6 61 13.50Q44 33 34 68.50Q24 104 19.50 152Q15 200 15 257L15 336Q15 477 64.50 548Q114 619 200 619L246 619L246 155Q246 127 250.50 105.50Q255 84 270 72L216-6Q201-1 190 9Q179 19 166 46Q153 24 136.50 9Q120-6 103-6M108 227Q108 210 109 185.50Q110 161 113 138Q116 115 121.50 99Q127 83 137 83Q147 83 153 89L153 512Q130 500 119 459Q108 418 108 354L108 227M171 812Q205 812 228 788.50Q251 765 251 732Q251 715 244.50 700.50Q238 686 227 675.50Q216 665 201.50 658.50Q187 652 171 652Q138 652 114.50 675.50Q91 699 91 732Q91 765 114 788.50Q137 812 171 812M129 732Q129 714 141.50 702Q154 690 171 690Q189 690 201 702Q213 714 213 732Q213 750 200.50 762Q188 774 171 774Q153 774 141 761.50Q129 749 129 732Z"  horiz-adv-x="281" vert-adv-y="1000"  />

      
      <glyph glyph-name="unie6" unicode="&#xe6;" d="M217 599Q232 611 244 615Q256 619 269 619Q295 619 315 606Q335 593 349 570Q363 547 370.50 515Q378 483 378 444Q378 372 346.50 317.50Q315 263 246 245Q261 95 339 95Q350 95 358.50 98Q367 101 375 109L375 5Q348-6 319-6Q279-6 246 12Q213 30 188 72Q171 41 149.50 17.50Q128-6 103-6Q86-6 70 7Q54 20 42 49Q30 78 22.50 125Q15 172 15 240L15 290Q15 321 17.50 357Q20 393 25.50 427.50Q31 462 40 492.50Q49 523 63 544Q88 581 123 600Q158 619 208 619L217 619L217 599M246 347Q271 361 279 389Q287 417 287 449Q287 462 284.50 484.50Q282 507 269 524Q255 493 250.50 473.50Q246 454 246 430L246 347M108 241Q108 220 109 193Q110 166 113 142Q116 118 123 102Q130 86 142 86Q150 86 155 91L155 507Q135 496 124 465Q119 453 116 422.50Q113 392 111.50 356.50Q110 321 109 288.50Q108 256 108 241Z"  horiz-adv-x="396" vert-adv-y="1000"  />

      
      <glyph glyph-name="unie7" unicode="&#xe7;" d="M188 518Q177 526 164 526Q134 526 121 485.50Q108 445 108 366L108 269Q108 229 109.50 195.50Q111 162 116.50 138Q122 114 131.50 100.50Q141 87 156 87Q173 87 188 99L188 10Q183 7 174 2Q165-3 153-6Q176-16 180.50-30.50Q185-45 185-54Q185-84 160.50-100.50Q136-117 101-117Q93-117 82-116Q71-115 57-113L68-75Q73-76 82-76Q97-76 107-71Q117-66 117-53Q117-33 89-32L118-3Q68 8 41.50 76Q15 144 15 265L15 363Q15 484 49 551.50Q83 619 147 619Q158 619 166.50 618Q175 617 188 613L188 518Z"  horiz-adv-x="198" vert-adv-y="1000"  />

      
      <glyph glyph-name="unie8" unicode="&#xe8;" d="M245 448Q245 367 208.50 314Q172 261 108 243Q109 200 115.50 170.50Q122 141 131.50 122.50Q141 104 153.50 95.50Q166 87 180 87Q196 87 204 89Q212 91 229 99L229 3Q217-2 205-4Q193-6 166-6Q99-6 57 61Q15 128 15 264L15 355Q15 422 25 471.50Q35 521 52 554Q69 587 92.50 603Q116 619 142 619Q166 619 185 605.50Q204 592 217.50 568.50Q231 545 238 514Q245 483 245 448M132 526Q118 511 113 482.50Q108 454 108 429L108 336Q122 342 130.50 354Q139 366 144 381Q149 396 150.50 413Q152 430 152 447Q152 479 147 496Q142 513 132 526M143 802L179 654L124 654L48 802L143 802Z"  horiz-adv-x="260" vert-adv-y="1000"  />

      
      <glyph glyph-name="unie9" unicode="&#xe9;" d="M245 448Q245 367 208.50 314Q172 261 108 243Q109 200 115.50 170.50Q122 141 131.50 122.50Q141 104 153.50 95.50Q166 87 180 87Q196 87 204 89Q212 91 229 99L229 3Q217-2 205-4Q193-6 166-6Q99-6 57 61Q15 128 15 264L15 355Q15 422 25 471.50Q35 521 52 554Q69 587 92.50 603Q116 619 142 619Q166 619 185 605.50Q204 592 217.50 568.50Q231 545 238 514Q245 483 245 448M132 526Q118 511 113 482.50Q108 454 108 429L108 336Q122 342 130.50 354Q139 366 144 381Q149 396 150.50 413Q152 430 152 447Q152 479 147 496Q142 513 132 526M225 802L149 654L94 654L130 802L225 802Z"  horiz-adv-x="260" vert-adv-y="1000"  />

      
      <glyph glyph-name="uniea" unicode="&#xea;" d="M245 448Q245 367 208.50 314Q172 261 108 243Q109 200 115.50 170.50Q122 141 131.50 122.50Q141 104 153.50 95.50Q166 87 180 87Q196 87 204 89Q212 91 229 99L229 3Q217-2 205-4Q193-6 166-6Q99-6 57 61Q15 128 15 264L15 355Q15 422 25 471.50Q35 521 52 554Q69 587 92.50 603Q116 619 142 619Q166 619 185 605.50Q204 592 217.50 568.50Q231 545 238 514Q245 483 245 448M132 526Q118 511 113 482.50Q108 454 108 429L108 336Q122 342 130.50 354Q139 366 144 381Q149 396 150.50 413Q152 430 152 447Q152 479 147 496Q142 513 132 526M193 796L220 651L163 651L137 714L111 651L54 651L83 796L193 796Z"  horiz-adv-x="260" vert-adv-y="1000"  />

      
      <glyph glyph-name="unieb" unicode="&#xeb;" d="M245 448Q245 367 208.50 314Q172 261 108 243Q109 200 115.50 170.50Q122 141 131.50 122.50Q141 104 153.50 95.50Q166 87 180 87Q196 87 204 89Q212 91 229 99L229 3Q217-2 205-4Q193-6 166-6Q99-6 57 61Q15 128 15 264L15 355Q15 422 25 471.50Q35 521 52 554Q69 587 92.50 603Q116 619 142 619Q166 619 185 605.50Q204 592 217.50 568.50Q231 545 238 514Q245 483 245 448M132 526Q118 511 113 482.50Q108 454 108 429L108 336Q122 342 130.50 354Q139 366 144 381Q149 396 150.50 413Q152 430 152 447Q152 479 147 496Q142 513 132 526M87 763Q107 763 117.50 746.50Q128 730 128 707Q128 683 117 667Q106 651 86 651Q65 651 55 669Q45 687 45 707Q45 730 56.50 746.50Q68 763 87 763M192 763Q212 763 222.50 746.50Q233 730 233 707Q233 683 222 667Q211 651 191 651Q170 651 160 668.50Q150 686 150 707Q150 730 161.50 746.50Q173 763 192 763Z"  horiz-adv-x="260" vert-adv-y="1000"  />

      
      <glyph glyph-name="uniec" unicode="&#xec;" d="M114 613L114 0L21 0L21 613L114 613M80 802L116 654L61 654L-15 802L80 802Z"  horiz-adv-x="143" vert-adv-y="1000"  />

      
      <glyph glyph-name="unied" unicode="&#xed;" d="M114 613L114 0L21 0L21 613L114 613M162 802L86 654L31 654L67 802L162 802Z"  horiz-adv-x="143" vert-adv-y="1000"  />

      
      <glyph glyph-name="uniee" unicode="&#xee;" d="M114 613L114 0L21 0L21 613L114 613M124 796L151 651L94 651L68 714L42 651L-15 651L14 796L124 796Z"  horiz-adv-x="143" vert-adv-y="1000"  />

      
      <glyph glyph-name="unief" unicode="&#xef;" d="M114 613L114 0L21 0L21 613L114 613M16 763Q36 763 46.50 746.50Q57 730 57 707Q57 683 46 667Q35 651 15 651Q-6 651-16 669Q-26 687-26 707Q-26 730-14.50 746.50Q-3 763 16 763M121 763Q141 763 151.50 746.50Q162 730 162 707Q162 683 151 667Q140 651 120 651Q99 651 89 668.50Q79 686 79 707Q79 730 90.50 746.50Q102 763 121 763Z"  horiz-adv-x="143" vert-adv-y="1000"  />

      
      <glyph glyph-name="unif0" unicode="&#xf0;" d="M80 796Q88 790 93 785Q98 780 102.50 775.50Q107 771 112 765.50Q117 760 125 751L181 785L206 742L155 711Q174 684 191 644Q208 604 221 552.50Q234 501 241.50 439Q249 377 249 305Q249 156 220.50 75Q192-6 135-6Q105-6 82.50 16.50Q60 39 45.50 81Q31 123 23.50 182Q16 241 16 313Q16 375 23 428.50Q30 482 43 522Q56 562 75 586.50Q94 611 118 617Q115 626 113 632.50Q111 639 108.50 645.50Q106 652 102.50 659Q99 666 94 676L47 647L21 689L69 718Q60 731 54 738.50Q48 746 37 759L80 796M134 99Q143 105 149.50 151.50Q156 198 156 301Q156 361 154 400.50Q152 440 149 463.50Q146 487 142 497.50Q138 508 134 512Q129 508 124.50 494Q120 480 117 459Q114 438 112.50 411Q111 384 111 356L111 280Q111 249 112.50 219Q114 189 116.50 164.50Q119 140 123.50 122.50Q128 105 134 99Z"  horiz-adv-x="260" vert-adv-y="1000"  />

      
      <glyph glyph-name="unif1" unicode="&#xf1;" d="M67 619Q84 614 94.50 603Q105 592 114 576Q129 595 142.50 607Q156 619 181 619Q215 619 235.50 591.50Q256 564 256 513L256 0L163 0L163 500Q163 513 156 519.50Q149 526 141 526Q133 526 128 520.50Q123 515 120 510L120 0L27 0L27 500Q27 517 23.50 529.50Q20 542 8 552L67 619M106 778Q120 778 129.50 772.50Q139 767 146.50 760Q154 753 161.50 747.50Q169 742 180 742Q187 742 193 751.50Q199 761 201 778L230 778Q231 771 231.50 761Q232 751 232 744Q232 704 215.50 676Q199 648 173 648Q159 648 150 654Q141 660 134 667.50Q127 675 120 681Q113 687 104 687Q99 687 93 680Q87 673 84 651L52 651Q51 655 50.50 664.50Q50 674 50 682Q50 722 65 750Q80 778 106 778Z"  horiz-adv-x="281" vert-adv-y="1000"  />

      
      <glyph glyph-name="unif2" unicode="&#xf2;" d="M131 619Q187 619 216.50 536Q246 453 246 306Q246 152 216 73Q186-6 131-6Q74-6 44.50 75.50Q15 157 15 306Q15 379 22.50 437Q30 495 44.50 535.50Q59 576 80.50 597.50Q102 619 131 619M131 99Q141 106 147 155Q153 204 153 279L153 323Q153 411 147 459Q141 507 131 512Q126 509 121.50 494.50Q117 480 114 458.50Q111 437 109.50 410Q108 383 108 356L108 281Q108 247 109.50 216.50Q111 186 113.50 162Q116 138 120.50 121.50Q125 105 131 99M143 802L179 654L124 654L48 802L143 802Z"  horiz-adv-x="261" vert-adv-y="1000"  />

      
      <glyph glyph-name="unif3" unicode="&#xf3;" d="M131 619Q187 619 216.50 536Q246 453 246 306Q246 152 216 73Q186-6 131-6Q74-6 44.50 75.50Q15 157 15 306Q15 379 22.50 437Q30 495 44.50 535.50Q59 576 80.50 597.50Q102 619 131 619M131 99Q141 106 147 155Q153 204 153 279L153 323Q153 411 147 459Q141 507 131 512Q126 509 121.50 494.50Q117 480 114 458.50Q111 437 109.50 410Q108 383 108 356L108 281Q108 247 109.50 216.50Q111 186 113.50 162Q116 138 120.50 121.50Q125 105 131 99M225 802L149 654L94 654L130 802L225 802Z"  horiz-adv-x="261" vert-adv-y="1000"  />

      
      <glyph glyph-name="unif4" unicode="&#xf4;" d="M131 619Q187 619 216.50 536Q246 453 246 306Q246 152 216 73Q186-6 131-6Q74-6 44.50 75.50Q15 157 15 306Q15 379 22.50 437Q30 495 44.50 535.50Q59 576 80.50 597.50Q102 619 131 619M131 99Q141 106 147 155Q153 204 153 279L153 323Q153 411 147 459Q141 507 131 512Q126 509 121.50 494.50Q117 480 114 458.50Q111 437 109.50 410Q108 383 108 356L108 281Q108 247 109.50 216.50Q111 186 113.50 162Q116 138 120.50 121.50Q125 105 131 99M187 796L214 651L157 651L131 714L105 651L48 651L77 796L187 796Z"  horiz-adv-x="261" vert-adv-y="1000"  />

      
      <glyph glyph-name="unif5" unicode="&#xf5;" d="M131 619Q187 619 216.50 536Q246 453 246 306Q246 152 216 73Q186-6 131-6Q74-6 44.50 75.50Q15 157 15 306Q15 379 22.50 437Q30 495 44.50 535.50Q59 576 80.50 597.50Q102 619 131 619M131 99Q141 106 147 155Q153 204 153 279L153 323Q153 411 147 459Q141 507 131 512Q126 509 121.50 494.50Q117 480 114 458.50Q111 437 109.50 410Q108 383 108 356L108 281Q108 247 109.50 216.50Q111 186 113.50 162Q116 138 120.50 121.50Q125 105 131 99M96 778Q110 778 119.50 772.50Q129 767 136.50 760Q144 753 151.50 747.50Q159 742 170 742Q177 742 183 751.50Q189 761 191 778L220 778Q221 771 221.50 761Q222 751 222 744Q222 704 205.50 676Q189 648 163 648Q149 648 140 654Q131 660 124 667.50Q117 675 110 681Q103 687 94 687Q89 687 83 680Q77 673 74 651L42 651Q41 655 40.50 664.50Q40 674 40 682Q40 722 55 750Q70 778 96 778Z"  horiz-adv-x="261" vert-adv-y="1000"  />

      
      <glyph glyph-name="unif6" unicode="&#xf6;" d="M131 619Q187 619 216.50 536Q246 453 246 306Q246 152 216 73Q186-6 131-6Q74-6 44.50 75.50Q15 157 15 306Q15 379 22.50 437Q30 495 44.50 535.50Q59 576 80.50 597.50Q102 619 131 619M131 99Q141 106 147 155Q153 204 153 279L153 323Q153 411 147 459Q141 507 131 512Q126 509 121.50 494.50Q117 480 114 458.50Q111 437 109.50 410Q108 383 108 356L108 281Q108 247 109.50 216.50Q111 186 113.50 162Q116 138 120.50 121.50Q125 105 131 99M79 763Q99 763 109.50 746.50Q120 730 120 707Q120 683 109 667Q98 651 78 651Q57 651 47 669Q37 687 37 707Q37 730 48.50 746.50Q60 763 79 763M184 763Q204 763 214.50 746.50Q225 730 225 707Q225 683 214 667Q203 651 183 651Q162 651 152 668.50Q142 686 142 707Q142 730 153.50 746.50Q165 763 184 763Z"  horiz-adv-x="261" vert-adv-y="1000"  />

      
      <glyph glyph-name="unif7" unicode="&#xf7;" d="M189 524Q189 547 205 563Q221 579 244 579Q267 579 283.50 563Q300 547 300 524Q300 501 283.50 484.50Q267 468 244 468Q221 468 205 484.50Q189 501 189 524M49 397L441 397L441 304L49 304L49 397M189 178Q189 201 205 217Q221 233 244 233Q267 233 283.50 217Q300 201 300 178Q300 156 283.50 139.50Q267 123 244 123Q221 123 205 139Q189 155 189 178Z"  horiz-adv-x="489" vert-adv-y="1000"  />

      
      <glyph glyph-name="unif8" unicode="&#xf8;" d="M131 619Q152 619 171.50 605Q191 591 201 571L216 619L244 619L217 535Q224 524 229 500.50Q234 477 238 446Q242 415 244 378.50Q246 342 246 305Q246 244 240.50 188Q235 132 221.50 89Q208 46 186 20Q164-6 132-6Q105-6 91 6.50Q77 19 61 42L45-6L16-6L44 79Q35 111 29.50 139Q24 167 20.50 193.50Q17 220 16 247.50Q15 275 15 305Q15 460 45.50 539.50Q76 619 131 619M131 512Q123 506 118.50 488Q114 470 112 446Q110 422 109 396Q108 370 108 349L108 281L151 410Q151 425 149.50 441Q148 457 145.50 471.50Q143 486 139.50 497Q136 508 131 512M131 99Q137 104 141 121Q145 138 148 163Q151 188 152.50 219Q154 250 154 284Q154 298 154 310.50Q154 323 153 334L110 195Q111 172 114.50 146Q118 120 131 99Z"  horiz-adv-x="260" vert-adv-y="1000"  />

      
      <glyph glyph-name="unif9" unicode="&#xf9;" d="M118 613L118 118Q118 100 122 93.50Q126 87 137 87Q148 87 154.50 94.50Q161 102 161 110L161 613L254 613L254 99Q254 88 257 80.50Q260 73 272 61L215-6Q194 1 184 11.50Q174 22 168 37Q150 16 135.50 5Q121-6 98-6Q65-6 45 20.50Q25 47 25 92L25 613L118 613M153 802L189 654L134 654L58 802L153 802Z"  horiz-adv-x="281" vert-adv-y="1000"  />

      
      <glyph glyph-name="unifa" unicode="&#xfa;" d="M118 613L118 118Q118 100 122 93.50Q126 87 137 87Q148 87 154.50 94.50Q161 102 161 110L161 613L254 613L254 99Q254 88 257 80.50Q260 73 272 61L215-6Q194 1 184 11.50Q174 22 168 37Q150 16 135.50 5Q121-6 98-6Q65-6 45 20.50Q25 47 25 92L25 613L118 613M235 802L159 654L104 654L140 802L235 802Z"  horiz-adv-x="281" vert-adv-y="1000"  />

      
      <glyph glyph-name="unifb" unicode="&#xfb;" d="M118 613L118 118Q118 100 122 93.50Q126 87 137 87Q148 87 154.50 94.50Q161 102 161 110L161 613L254 613L254 99Q254 88 257 80.50Q260 73 272 61L215-6Q194 1 184 11.50Q174 22 168 37Q150 16 135.50 5Q121-6 98-6Q65-6 45 20.50Q25 47 25 92L25 613L118 613M197 796L224 651L167 651L141 714L115 651L58 651L87 796L197 796Z"  horiz-adv-x="281" vert-adv-y="1000"  />

      
      <glyph glyph-name="unifc" unicode="&#xfc;" d="M118 613L118 118Q118 100 122 93.50Q126 87 137 87Q148 87 154.50 94.50Q161 102 161 110L161 613L254 613L254 99Q254 88 257 80.50Q260 73 272 61L215-6Q194 1 184 11.50Q174 22 168 37Q150 16 135.50 5Q121-6 98-6Q65-6 45 20.50Q25 47 25 92L25 613L118 613M89 763Q109 763 119.50 746.50Q130 730 130 707Q130 683 119 667Q108 651 88 651Q67 651 57 669Q47 687 47 707Q47 730 58.50 746.50Q70 763 89 763M194 763Q214 763 224.50 746.50Q235 730 235 707Q235 683 224 667Q213 651 193 651Q172 651 162 668.50Q152 686 152 707Q152 730 163.50 746.50Q175 763 194 763Z"  horiz-adv-x="281" vert-adv-y="1000"  />

      
      <glyph glyph-name="unifd" unicode="&#xfd;" d="M101 613L127 196L149 613L241 613L174 31Q170-2 161-29.50Q152-57 135.50-76.50Q119-96 94.50-106.50Q70-117 37-117L15-117L15-28L27-28Q60-28 69.50-15Q79-2 83 23L9 613L101 613M220 802L144 654L89 654L125 802L220 802Z"  horiz-adv-x="247" vert-adv-y="1000"  />

      
      <glyph glyph-name="unife" unicode="&#xfe;" d="M118 108Q132 110 140.50 124.50Q149 139 154 161.50Q159 184 161 211.50Q163 239 163 267L163 402Q163 528 131 528Q124 528 118 522L118 108M168 619Q194 619 211 595Q228 571 238 534Q248 497 252 453Q256 409 256 369L256 283Q256 229 248.50 178Q241 127 224.50 86.50Q208 46 181.50 20.50Q155-5 118-6L118-117L25-117L25 796L118 796L118 576Q128 593 141 606Q154 619 168 619Z"  horiz-adv-x="271" vert-adv-y="1000"  />

      
      <glyph glyph-name="uniff" unicode="&#xff;" d="M101 613L127 196L149 613L241 613L174 31Q170-2 161-29.50Q152-57 135.50-76.50Q119-96 94.50-106.50Q70-117 37-117L15-117L15-28L27-28Q60-28 69.50-15Q79-2 83 23L9 613L101 613M74 763Q94 763 104.50 746.50Q115 730 115 707Q115 683 104 667Q93 651 73 651Q52 651 42 669Q32 687 32 707Q32 730 43.50 746.50Q55 763 74 763M179 763Q199 763 209.50 746.50Q220 730 220 707Q220 683 209 667Q198 651 178 651Q157 651 147 668.50Q137 686 137 707Q137 730 148.50 746.50Q160 763 179 763Z"  horiz-adv-x="247" vert-adv-y="1000"  />

      
      <glyph glyph-name="uni0100" unicode="&#x0100;" d="M218 802L302 0L194 0L188 142L128 142L118 0L11 0L101 802L218 802M153 670Q152 652 151.50 626.50Q151 601 150.50 573Q150 545 149 516.50Q148 488 147 465L134 247L181 247L171 463Q169 515 167 566.50Q165 618 162 670L153 670M250 926L250 866L63 866L63 926L250 926Z"  horiz-adv-x="313" vert-adv-y="1000"  />

      
      <glyph glyph-name="uni0101" unicode="&#x0101;" d="M103-6Q78-6 61 13.50Q44 33 34 68.50Q24 104 19.50 152Q15 200 15 257L15 336Q15 477 64.50 548Q114 619 200 619L246 619L246 155Q246 127 250.50 105.50Q255 84 270 72L216-6Q201-1 190 9Q179 19 166 46Q153 24 136.50 9Q120-6 103-6M108 227Q108 210 109 185.50Q110 161 113 138Q116 115 121.50 99Q127 83 137 83Q147 83 153 89L153 512Q130 500 119 459Q108 418 108 354L108 227M234 738L234 678L47 678L47 738L234 738Z"  horiz-adv-x="281" vert-adv-y="1000"  />

      
      <glyph glyph-name="uni0102" unicode="&#x0102;" d="M218 802L302 0L194 0L188 142L128 142L118 0L11 0L101 802L218 802M153 670Q152 652 151.50 626.50Q151 601 150.50 573Q150 545 149 516.50Q148 488 147 465L134 247L181 247L171 463Q169 515 167 566.50Q165 618 162 670L153 670M76 984L128 984Q130 939 136 925Q142 911 157 911Q175 911 179.50 927.50Q184 944 186 984L238 984L238 973Q238 900 218 869.50Q198 839 158 839Q118 839 97 868.50Q76 898 76 973L76 984Z"  horiz-adv-x="313" vert-adv-y="1000"  />

      
      <glyph glyph-name="uni0103" unicode="&#x0103;" d="M103-6Q78-6 61 13.50Q44 33 34 68.50Q24 104 19.50 152Q15 200 15 257L15 336Q15 477 64.50 548Q114 619 200 619L246 619L246 155Q246 127 250.50 105.50Q255 84 270 72L216-6Q201-1 190 9Q179 19 166 46Q153 24 136.50 9Q120-6 103-6M108 227Q108 210 109 185.50Q110 161 113 138Q116 115 121.50 99Q127 83 137 83Q147 83 153 89L153 512Q130 500 119 459Q108 418 108 354L108 227M80 796L132 796Q134 751 140 737Q146 723 161 723Q179 723 183.50 739.50Q188 756 190 796L242 796L242 785Q242 712 222 681.50Q202 651 162 651Q122 651 101 680.50Q80 710 80 785L80 796Z"  horiz-adv-x="281" vert-adv-y="1000"  />

      
      <glyph glyph-name="uni0104" unicode="&#x0104;" d="M218 802L302 0L269 0L302-25Q283-33 278-39.50Q273-46 273-52Q273-62 282-68.50Q291-75 307-75Q311-75 315-75Q319-75 323-74L334-111Q312-115 302-116Q292-117 282-117Q239-117 218.50-97Q198-77 198-55Q198-37 208-22.50Q218-8 240 0L194 0L188 142L128 142L118 0L11 0L101 802L218 802M153 670Q152 652 151.50 626.50Q151 601 150.50 573Q150 545 149 516.50Q148 488 147 465L134 247L181 247L171 463Q169 515 167 566.50Q165 618 162 670L153 670Z"  horiz-adv-x="313" vert-adv-y="1000"  />

      
      <glyph glyph-name="uni0105" unicode="&#x0105;" d="M103-6Q78-6 61 13.50Q44 33 34 68.50Q24 104 19.50 152Q15 200 15 257L15 336Q15 394 25.50 445.50Q36 497 58.50 535.50Q81 574 116 596.50Q151 619 200 619L246 619L246 155Q246 127 250.50 105.50Q255 84 270 72L220 0L252-25Q236-32 229.50-37.50Q223-43 223-52Q223-62 231-68.50Q239-75 256-75Q259-75 263.50-75Q268-75 273-74L284-111Q263-115 252.50-116Q242-117 232-117Q189-117 168.50-97Q148-77 148-54Q148-35 160.50-20.50Q173-6 197 2Q189 8 181.50 18Q174 28 166 46Q153 24 136.50 9Q120-6 103-6M108 227Q108 210 109 185.50Q110 161 113 138Q116 115 121.50 99Q127 83 137 83Q147 83 153 89L153 502Q141 496 132 485.50Q123 475 118 458Q113 441 110.50 415.50Q108 390 108 354L108 227Z"  horiz-adv-x="281" vert-adv-y="1000"  />

      
      <glyph glyph-name="uni0106" unicode="&#x0106;" d="M18 403Q18 499 32.50 573.50Q47 648 72 698.50Q97 749 129 775.50Q161 802 196 802Q209 802 222 798.50Q235 795 249 787L249 688Q241 692 231.50 694.50Q222 697 217 697Q175 697 152.50 626Q130 555 130 416Q130 364 132.50 309.50Q135 255 144 210Q153 165 169.50 136Q186 107 214 107Q225 107 232 108.50Q239 110 249 117L249 11Q238 1 225.50-2.50Q213-6 198-6Q147-6 112.50 30.50Q78 67 57 125.50Q36 184 27 257Q18 330 18 403M266 990L190 842L135 842L171 990L266 990Z"  horiz-adv-x="260" vert-adv-y="1000"  />

      
      <glyph glyph-name="uni0107" unicode="&#x0107;" d="M188 518Q177 526 164 526Q134 526 121 485.50Q108 445 108 366L108 269Q108 229 109.50 195.50Q111 162 116.50 138Q122 114 131.50 100.50Q141 87 156 87Q173 87 188 99L188 10Q183 6 167.50 0Q152-6 139-6Q79-6 47 63Q15 132 15 265L15 363Q15 484 49 551.50Q83 619 147 619Q158 619 166.50 618Q175 617 188 613L188 518M215 802L139 654L84 654L120 802L215 802Z"  horiz-adv-x="198" vert-adv-y="1000"  />

      
      <glyph glyph-name="uni0108" unicode="&#x0108;" d="M18 403Q18 499 32.50 573.50Q47 648 72 698.50Q97 749 129 775.50Q161 802 196 802Q209 802 222 798.50Q235 795 249 787L249 688Q241 692 231.50 694.50Q222 697 217 697Q175 697 152.50 626Q130 555 130 416Q130 364 132.50 309.50Q135 255 144 210Q153 165 169.50 136Q186 107 214 107Q225 107 232 108.50Q239 110 249 117L249 11Q238 1 225.50-2.50Q213-6 198-6Q147-6 112.50 30.50Q78 67 57 125.50Q36 184 27 257Q18 330 18 403M241 984L268 839L211 839L185 902L159 839L102 839L131 984L241 984Z"  horiz-adv-x="260" vert-adv-y="1000"  />

      
      <glyph glyph-name="uni0109" unicode="&#x0109;" d="M188 518Q177 526 164 526Q134 526 121 485.50Q108 445 108 366L108 269Q108 229 109.50 195.50Q111 162 116.50 138Q122 114 131.50 100.50Q141 87 156 87Q173 87 188 99L188 10Q183 6 167.50 0Q152-6 139-6Q79-6 47 63Q15 132 15 265L15 363Q15 484 49 551.50Q83 619 147 619Q158 619 166.50 618Q175 617 188 613L188 518M180 796L207 651L150 651L124 714L98 651L41 651L70 796L180 796Z"  horiz-adv-x="198" vert-adv-y="1000"  />

      
      <glyph glyph-name="uni010A" unicode="&#x010A;" d="M18 403Q18 499 32.50 573.50Q47 648 72 698.50Q97 749 129 775.50Q161 802 196 802Q209 802 222 798.50Q235 795 249 787L249 688Q241 692 231.50 694.50Q222 697 217 697Q175 697 152.50 626Q130 555 130 416Q130 364 132.50 309.50Q135 255 144 210Q153 165 169.50 136Q186 107 214 107Q225 107 232 108.50Q239 110 249 117L249 11Q238 1 225.50-2.50Q213-6 198-6Q147-6 112.50 30.50Q78 67 57 125.50Q36 184 27 257Q18 330 18 403M192 951Q212 951 222.50 934.50Q233 918 233 895Q233 871 222 855Q211 839 191 839Q170 839 160 856.50Q150 874 150 895Q150 918 161.50 934.50Q173 951 192 951Z"  horiz-adv-x="260" vert-adv-y="1000"  />

      
      <glyph glyph-name="uni010B" unicode="&#x010B;" d="M188 518Q177 526 164 526Q134 526 121 485.50Q108 445 108 366L108 269Q108 229 109.50 195.50Q111 162 116.50 138Q122 114 131.50 100.50Q141 87 156 87Q173 87 188 99L188 10Q183 6 167.50 0Q152-6 139-6Q79-6 47 63Q15 132 15 265L15 363Q15 484 49 551.50Q83 619 147 619Q158 619 166.50 618Q175 617 188 613L188 518M125 763Q145 763 155.50 746.50Q166 730 166 707Q166 683 155 667Q144 651 124 651Q103 651 93 668.50Q83 686 83 707Q83 730 94.50 746.50Q106 763 125 763Z"  horiz-adv-x="198" vert-adv-y="1000"  />

      
      <glyph glyph-name="uni010C" unicode="&#x010C;" d="M18 403Q18 499 32.50 573.50Q47 648 72 698.50Q97 749 129 775.50Q161 802 196 802Q209 802 222 798.50Q235 795 249 787L249 688Q241 692 231.50 694.50Q222 697 217 697Q175 697 152.50 626Q130 555 130 416Q130 364 132.50 309.50Q135 255 144 210Q153 165 169.50 136Q186 107 214 107Q225 107 232 108.50Q239 110 249 117L249 11Q238 1 225.50-2.50Q213-6 198-6Q147-6 112.50 30.50Q78 67 57 125.50Q36 184 27 257Q18 330 18 403M104 984L157 984L186 914L213 984L267 984L234 839L138 839L104 984Z"  horiz-adv-x="260" vert-adv-y="1000"  />

      
      <glyph glyph-name="uni010D" unicode="&#x010D;" d="M188 518Q177 526 164 526Q134 526 121 485.50Q108 445 108 366L108 269Q108 229 109.50 195.50Q111 162 116.50 138Q122 114 131.50 100.50Q141 87 156 87Q173 87 188 99L188 10Q183 6 167.50 0Q152-6 139-6Q79-6 47 63Q15 132 15 265L15 363Q15 484 49 551.50Q83 619 147 619Q158 619 166.50 618Q175 617 188 613L188 518M43 796L96 796L125 726L152 796L206 796L173 651L77 651L43 796Z"  horiz-adv-x="198" vert-adv-y="1000"  />

      
      <glyph glyph-name="uni010E" unicode="&#x010E;" d="M27 796L64 796Q113 796 150.50 779Q188 762 215 733Q242 704 259.50 665.50Q277 627 287.50 583Q298 539 302 492.50Q306 446 306 402Q306 369 303.50 326.50Q301 284 292.50 239.50Q284 195 269 152Q254 109 229.50 75Q205 41 169 20.50Q133 0 84 0L27 0L27 796M134 130Q171 157 182.50 223.50Q194 290 194 399Q194 438 192 479.50Q190 521 183.50 557.50Q177 594 165 622Q153 650 134 663L134 130M40 984L93 984L122 914L149 984L203 984L170 839L74 839L40 984Z"  horiz-adv-x="323" vert-adv-y="1000"  />

      
      <glyph glyph-name="uni010F" unicode="&#x010F;" d="M246 796L246 148Q246 119 250.50 104Q255 89 268 73L214-6Q178 5 164 48Q146 19 133 6.50Q120-6 103-6Q61-6 38 50.50Q15 107 15 221L15 339Q15 475 51.50 546Q88 617 153 619L153 796L246 796M108 213Q108 159 114.50 122Q121 85 138 85Q148 85 153 93L153 507Q132 503 120 468.50Q108 434 108 371L108 213M376 737Q376 716 370 694.50Q364 673 351.50 654Q339 635 319.50 621Q300 607 273 600L273 630Q283 634 290 642Q297 650 302.50 659.50Q308 669 310.50 678.50Q313 688 314 695Q294 696 283.50 710Q273 724 273 747Q273 771 289 786.50Q305 802 325 802Q345 802 360.50 785.50Q376 769 376 737Z"  horiz-adv-x="371" vert-adv-y="1000"  />

      
      <glyph glyph-name="uni0110" unicode="&#x0110;" d="M27 368L0 368L0 428L27 428L27 796L64 796Q113 796 150.50 779Q188 762 215 733Q242 704 259.50 665.50Q277 627 287.50 583Q298 539 302 492.50Q306 446 306 402Q306 369 303.50 326.50Q301 284 292.50 239.50Q284 195 269 152Q254 109 229.50 75Q205 41 169 20.50Q133 0 84 0L27 0L27 368M134 428L167 428L167 368L134 368L134 130Q171 157 182.50 223.50Q194 290 194 399Q194 438 192 479.50Q190 521 183.50 557.50Q177 594 165 622Q153 650 134 663L134 428Z"  horiz-adv-x="323" vert-adv-y="1000"  />

      
      <glyph glyph-name="uni0111" unicode="&#x0111;" d="M246 796L246 742L281 742L281 682L246 682L246 148Q246 119 250.50 104Q255 89 268 73L214-6Q178 5 164 48Q146 19 133 6.50Q120-6 103-6Q61-6 38 50.50Q15 107 15 221L15 339Q15 475 51.50 546Q88 617 153 619L153 682L64 682L64 742L153 742L153 796L246 796M108 213Q108 159 114.50 122Q121 85 138 85Q148 85 153 93L153 507Q132 503 120 468.50Q108 434 108 371L108 213Z"  horiz-adv-x="281" vert-adv-y="1000"  />

      
      <glyph glyph-name="uni0112" unicode="&#x0112;" d="M210 796L210 691L134 691L134 440L210 440L210 335L134 335L134 105L210 105L210 0L27 0L27 796L210 796M211 926L211 866L24 866L24 926L211 926Z"  horiz-adv-x="219" vert-adv-y="1000"  />

      
      <glyph glyph-name="uni0113" unicode="&#x0113;" d="M245 448Q245 367 208.50 314Q172 261 108 243Q109 200 115.50 170.50Q122 141 131.50 122.50Q141 104 153.50 95.50Q166 87 180 87Q196 87 204 89Q212 91 229 99L229 3Q217-2 205-4Q193-6 166-6Q99-6 57 61Q15 128 15 264L15 355Q15 422 25 471.50Q35 521 52 554Q69 587 92.50 603Q116 619 142 619Q166 619 185 605.50Q204 592 217.50 568.50Q231 545 238 514Q245 483 245 448M132 526Q118 511 113 482.50Q108 454 108 429L108 336Q122 342 130.50 354Q139 366 144 381Q149 396 150.50 413Q152 430 152 447Q152 479 147 496Q142 513 132 526M234 738L234 678L47 678L47 738L234 738Z"  horiz-adv-x="260" vert-adv-y="1000"  />

      
      <glyph glyph-name="uni0114" unicode="&#x0114;" d="M210 796L210 691L134 691L134 440L210 440L210 335L134 335L134 105L210 105L210 0L27 0L27 796L210 796M28 984L80 984Q82 939 88 925Q94 911 109 911Q127 911 131.50 927.50Q136 944 138 984L190 984L190 973Q190 900 170 869.50Q150 839 110 839Q70 839 49 868.50Q28 898 28 973L28 984Z"  horiz-adv-x="219" vert-adv-y="1000"  />

      
      <glyph glyph-name="uni0115" unicode="&#x0115;" d="M245 448Q245 367 208.50 314Q172 261 108 243Q109 200 115.50 170.50Q122 141 131.50 122.50Q141 104 153.50 95.50Q166 87 180 87Q196 87 204 89Q212 91 229 99L229 3Q217-2 205-4Q193-6 166-6Q99-6 57 61Q15 128 15 264L15 355Q15 422 25 471.50Q35 521 52 554Q69 587 92.50 603Q116 619 142 619Q166 619 185 605.50Q204 592 217.50 568.50Q231 545 238 514Q245 483 245 448M132 526Q118 511 113 482.50Q108 454 108 429L108 336Q122 342 130.50 354Q139 366 144 381Q149 396 150.50 413Q152 430 152 447Q152 479 147 496Q142 513 132 526M49 796L101 796Q103 751 109 737Q115 723 130 723Q148 723 152.50 739.50Q157 756 159 796L211 796L211 785Q211 712 191 681.50Q171 651 131 651Q91 651 70 680.50Q49 710 49 785L49 796Z"  horiz-adv-x="260" vert-adv-y="1000"  />

      
      <glyph glyph-name="uni0116" unicode="&#x0116;" d="M210 796L210 691L134 691L134 440L210 440L210 335L134 335L134 105L210 105L210 0L27 0L27 796L210 796M118 951Q138 951 148.50 934.50Q159 918 159 895Q159 871 148 855Q137 839 117 839Q96 839 86 856.50Q76 874 76 895Q76 918 87.50 934.50Q99 951 118 951Z"  horiz-adv-x="219" vert-adv-y="1000"  />

      
      <glyph glyph-name="uni0117" unicode="&#x0117;" d="M245 448Q245 367 208.50 314Q172 261 108 243Q109 200 115.50 170.50Q122 141 131.50 122.50Q141 104 153.50 95.50Q166 87 180 87Q196 87 204 89Q212 91 229 99L229 3Q217-2 205-4Q193-6 166-6Q99-6 57 61Q15 128 15 264L15 355Q15 422 25 471.50Q35 521 52 554Q69 587 92.50 603Q116 619 142 619Q166 619 185 605.50Q204 592 217.50 568.50Q231 545 238 514Q245 483 245 448M132 526Q118 511 113 482.50Q108 454 108 429L108 336Q122 342 130.50 354Q139 366 144 381Q149 396 150.50 413Q152 430 152 447Q152 479 147 496Q142 513 132 526M131 763Q151 763 161.50 746.50Q172 730 172 707Q172 683 161 667Q150 651 130 651Q109 651 99 668.50Q89 686 89 707Q89 730 100.50 746.50Q112 763 131 763Z"  horiz-adv-x="260" vert-adv-y="1000"  />

      
      <glyph glyph-name="uni0118" unicode="&#x0118;" d="M27 0L27 796L210 796L210 691L134 691L134 440L210 440L210 335L134 335L134 105L210 105L210 0L157 0L190-25Q172-33 166.50-38.50Q161-44 161-52Q161-62 170-68.50Q179-75 194-75Q199-75 203-75Q207-75 211-74L222-111Q200-115 190-116Q180-117 170-117Q127-117 106.50-97Q86-77 86-55Q86-17 128 0L27 0Z"  horiz-adv-x="219" vert-adv-y="1000"  />

      
      <glyph glyph-name="uni0119" unicode="&#x0119;" d="M245 448Q245 367 210.50 314Q176 261 112 243Q113 204 121 176Q129 148 141.50 129.50Q154 111 169.50 102Q185 93 200 93Q205 93 214 95Q223 97 240 105L240 3Q232-1 223.50-2.50Q215-4 206-5L231-25Q215-32 208.50-37.50Q202-43 202-52Q202-62 210-68.50Q218-75 235-75Q238-75 242.50-75Q247-75 252-74L263-111Q242-115 231.50-116Q221-117 211-117Q168-117 147.50-97Q127-77 127-54Q127-21 162-3Q137 1 111 17.50Q85 34 63.50 68Q42 102 28.50 157.50Q15 213 15 297L15 375Q15 493 44.50 556Q74 619 133 619Q160 619 181 605.50Q202 592 216.50 568.50Q231 545 238 514Q245 483 245 448M132 524Q119 504 113.50 482.50Q108 461 108 429L108 345Q136 357 144 385.50Q152 414 152 447Q152 479 147 495Q142 511 132 524Z"  horiz-adv-x="260" vert-adv-y="1000"  />

      
      <glyph glyph-name="uni011A" unicode="&#x011A;" d="M210 796L210 691L134 691L134 440L210 440L210 335L134 335L134 105L210 105L210 0L27 0L27 796L210 796M36 984L89 984L118 914L145 984L199 984L166 839L70 839L36 984Z"  horiz-adv-x="219" vert-adv-y="1000"  />

      
      <glyph glyph-name="uni011B" unicode="&#x011B;" d="M245 448Q245 367 208.50 314Q172 261 108 243Q109 200 115.50 170.50Q122 141 131.50 122.50Q141 104 153.50 95.50Q166 87 180 87Q196 87 204 89Q212 91 229 99L229 3Q217-2 205-4Q193-6 166-6Q99-6 57 61Q15 128 15 264L15 355Q15 422 25 471.50Q35 521 52 554Q69 587 92.50 603Q116 619 142 619Q166 619 185 605.50Q204 592 217.50 568.50Q231 545 238 514Q245 483 245 448M132 526Q118 511 113 482.50Q108 454 108 429L108 336Q122 342 130.50 354Q139 366 144 381Q149 396 150.50 413Q152 430 152 447Q152 479 147 496Q142 513 132 526M49 796L102 796L131 726L158 796L212 796L179 651L83 651L49 796Z"  horiz-adv-x="260" vert-adv-y="1000"  />

      
      <glyph glyph-name="uni011C" unicode="&#x011C;" d="M305 650Q268 697 231 697Q204 697 184.50 674.50Q165 652 153 613Q141 574 135.50 521Q130 468 130 407Q130 368 132 322.50Q134 277 141.50 234.50Q149 192 162 157.50Q175 123 198 105L198 293L157 293L157 398L305 398L305 0Q295-3 276.50-4.50Q258-6 223-6Q186-6 149.50 13.50Q113 33 83.50 79Q54 125 36 201.50Q18 278 18 392Q18 483 32 558.50Q46 634 71.50 688Q97 742 133.50 772Q170 802 215 802Q241 802 260.50 794.50Q280 787 305 773L305 650M258 984L285 839L228 839L202 902L176 839L119 839L148 984L258 984Z"  horiz-adv-x="329" vert-adv-y="1000"  />

      
      <glyph glyph-name="uni011D" unicode="&#x011D;" d="M246 15Q246-42 213.50-79.50Q181-117 121-117Q93-117 70.50-108Q48-99 27-87L57-7Q69-15 81-20.50Q93-26 110-26Q130-26 141.50-15Q153-4 153 15L153 41Q141 24 126.50 17Q112 10 104 10Q61 10 38 78.50Q15 147 15 287Q15 385 28.50 445Q42 505 63 540Q85 576 119 597.50Q153 619 205 619L246 619L246 15M110 214Q110 196 111 177Q112 158 115 142Q118 126 124 116Q130 106 140 106Q149 106 153 110L153 509Q128 493 119 460.50Q110 428 110 377L110 214M202 796L229 651L172 651L146 714L120 651L63 651L92 796L202 796Z"  horiz-adv-x="271" vert-adv-y="1000"  />

      
      <glyph glyph-name="uni011E" unicode="&#x011E;" d="M305 650Q268 697 231 697Q204 697 184.50 674.50Q165 652 153 613Q141 574 135.50 521Q130 468 130 407Q130 368 132 322.50Q134 277 141.50 234.50Q149 192 162 157.50Q175 123 198 105L198 293L157 293L157 398L305 398L305 0Q295-3 276.50-4.50Q258-6 223-6Q186-6 149.50 13.50Q113 33 83.50 79Q54 125 36 201.50Q18 278 18 392Q18 483 32 558.50Q46 634 71.50 688Q97 742 133.50 772Q170 802 215 802Q241 802 260.50 794.50Q280 787 305 773L305 650M121 984L173 984Q175 939 181 925Q187 911 202 911Q220 911 224.50 927.50Q229 944 231 984L283 984L283 973Q283 900 263 869.50Q243 839 203 839Q163 839 142 868.50Q121 898 121 973L121 984Z"  horiz-adv-x="329" vert-adv-y="1000"  />

      
      <glyph glyph-name="uni011F" unicode="&#x011F;" d="M246 15Q246-42 213.50-79.50Q181-117 121-117Q93-117 70.50-108Q48-99 27-87L57-7Q69-15 81-20.50Q93-26 110-26Q130-26 141.50-15Q153-4 153 15L153 41Q141 24 126.50 17Q112 10 104 10Q61 10 38 78.50Q15 147 15 287Q15 385 28.50 445Q42 505 63 540Q85 576 119 597.50Q153 619 205 619L246 619L246 15M110 214Q110 196 111 177Q112 158 115 142Q118 126 124 116Q130 106 140 106Q149 106 153 110L153 509Q128 493 119 460.50Q110 428 110 377L110 214M65 796L117 796Q119 751 125 737Q131 723 146 723Q164 723 168.50 739.50Q173 756 175 796L227 796L227 785Q227 712 207 681.50Q187 651 147 651Q107 651 86 680.50Q65 710 65 785L65 796Z"  horiz-adv-x="271" vert-adv-y="1000"  />

      
      <glyph glyph-name="uni0120" unicode="&#x0120;" d="M305 650Q268 697 231 697Q204 697 184.50 674.50Q165 652 153 613Q141 574 135.50 521Q130 468 130 407Q130 368 132 322.50Q134 277 141.50 234.50Q149 192 162 157.50Q175 123 198 105L198 293L157 293L157 398L305 398L305 0Q295-3 276.50-4.50Q258-6 223-6Q186-6 149.50 13.50Q113 33 83.50 79Q54 125 36 201.50Q18 278 18 392Q18 483 32 558.50Q46 634 71.50 688Q97 742 133.50 772Q170 802 215 802Q241 802 260.50 794.50Q280 787 305 773L305 650M202 951Q222 951 232.50 934.50Q243 918 243 895Q243 871 232 855Q221 839 201 839Q180 839 170 856.50Q160 874 160 895Q160 918 171.50 934.50Q183 951 202 951Z"  horiz-adv-x="329" vert-adv-y="1000"  />

      
      </font>
</defs>
</svg>
